<?xml version="1.0" encoding="utf-8"?>
<!-- Generator: Adobe Illustrator 21.0.0, SVG Export Plug-In . SVG Version: 6.00 Build 0)  -->
<svg version="1.1" id="Layer_1" xmlns="http://www.w3.org/2000/svg" xmlns:xlink="http://www.w3.org/1999/xlink" x="0px" y="0px"
	 viewBox="0 0 512 512" style="enable-background:new 0 0 512 512;" xml:space="preserve">
<style type="text/css">
	.st0{fill:#4A555F;}
	.st1{fill:#F58E6F;}
	.st2{fill:#DFDFDF;}
	.st3{fill:#FFD452;}
	.st4{fill:#71CCE0;}
	.st5{fill:none;}
	.st6{fill:#FFFFFF;}
</style>
<g>
	<g>
		<path class="st0" d="M458.187,322.808l-7.24-4.397c1.436-2.363,2.82-4.753,4.149-7.171l7.421,4.082
			C461.128,317.845,459.684,320.342,458.187,322.808z M466.526,307.658l-7.587-3.763c1.227-2.476,2.401-4.977,3.526-7.501
			l7.736,3.441C469.032,302.467,467.808,305.076,466.526,307.658z M473.553,291.868l-7.874-3.121
			c1.02-2.569,1.985-5.162,2.903-7.774l7.989,2.802C475.621,286.495,474.615,289.192,473.553,291.868z M479.268,275.571
			l-8.094-2.484c0.811-2.644,1.571-5.307,2.283-7.986l8.188,2.172C480.906,270.058,480.112,272.824,479.268,275.571z
			 M483.699,258.893l-8.26-1.864c0.609-2.7,1.169-5.414,1.679-8.142l8.326,1.562C484.912,253.277,484.33,256.093,483.699,258.893z
			 M486.877,241.951l-8.375-1.267c0.416-2.738,0.777-5.488,1.094-8.246l8.414,0.966
			C487.682,236.264,487.304,239.113,486.877,241.951z M488.846,224.832l-8.441-0.68c0.223-2.762,0.394-5.532,0.524-8.307
			l8.458,0.389C489.256,219.106,489.074,221.973,488.846,224.832z M489.64,207.627l-8.469-0.103c0.014-1.107,0.022-2.213,0.022-3.32
			c0-1.672-0.019-3.341-0.058-5.004l8.469-0.193c0.039,1.728,0.058,3.46,0.058,5.197
			C489.662,205.345,489.653,206.486,489.64,207.627z M480.793,190.905c-0.168-2.773-0.386-5.532-0.659-8.276l8.43-0.831
			c0.278,2.851,0.507,5.716,0.681,8.596L480.793,190.905z M479.166,174.387c-0.378-2.752-0.808-5.488-1.287-8.205l8.342-1.469
			c0.496,2.822,0.943,5.663,1.337,8.519L479.166,174.387z M476.28,158.036c-0.587-2.712-1.224-5.405-1.91-8.08l8.204-2.106
			c0.714,2.778,1.373,5.578,1.982,8.395L476.28,158.036z M472.153,141.954c-0.791-2.658-1.632-5.295-2.522-7.91l8.017-2.728
			c0.924,2.717,1.797,5.457,2.622,8.219L472.153,141.954z M466.807,126.238c-0.995-2.59-2.037-5.157-3.124-7.699l7.785-3.332
			c1.13,2.638,2.211,5.303,3.245,7.991L466.807,126.238z M460.271,110.973c-1.191-2.505-2.426-4.985-3.705-7.437l7.51-3.917
			c1.329,2.546,2.608,5.119,3.843,7.721L460.271,110.973z M452.587,96.249c-1.378-2.407-2.798-4.785-4.262-7.134l7.19-4.479
			c1.519,2.438,2.994,4.909,4.422,7.408L452.587,96.249z M443.804,82.15c-1.558-2.295-3.154-4.56-4.791-6.793l6.831-5.008
			c1.698,2.317,3.355,4.667,4.968,7.049L443.804,82.15z M433.976,68.751c-0.97-1.224-1.952-2.436-2.95-3.638
			c-0.772-0.93-1.549-1.853-2.335-2.771l6.435-5.508c0.813,0.95,1.618,1.907,2.418,2.871c1.037,1.25,2.062,2.512,3.071,3.786
			L433.976,68.751z M423.172,56.138c-1.883-2.035-3.802-4.033-5.759-5.995l5.999-5.98c2.029,2.037,4.02,4.111,5.974,6.223
			L423.172,56.138z M411.441,44.371c-2.029-1.886-4.091-3.734-6.192-5.543l5.53-6.415c2.178,1.878,4.323,3.798,6.429,5.756
			L411.441,44.371z M398.862,33.523c-2.17-1.727-4.367-3.415-6.594-5.062l5.029-6.812c2.316,1.709,4.596,3.46,6.842,5.252
			L398.862,33.523z M385.494,23.656c-2.291-1.559-4.609-3.076-6.958-4.549l4.499-7.175c2.437,1.529,4.844,3.103,7.223,4.721
			L385.494,23.656z"/>
	</g>
	<g>
		<path class="st0" d="M257.219,490.531c-1.049,0-2.097-0.387-2.914-1.162L125.297,367.035c-1.684-1.597-3.387-3.174-5.089-4.75
			c-2.875-2.664-5.849-5.419-8.705-8.25c-38.965-38.634-61.314-92.216-61.314-147.006C50.189,92.873,143.062,0,257.219,0
			s207.03,92.873,207.03,207.029c0,54.187-21.556,106.917-59.143,144.671h-0.003c-3.305,3.321-6.655,6.511-10.374,10.037
			l-0.069-0.071c-1.003,1.087-2.732,2.728-5.715,5.555L260.133,489.369C259.316,490.144,258.268,490.531,257.219,490.531z
			 M257.219,8.469c-109.487,0-198.561,89.074-198.561,198.56c0,52.548,21.435,103.937,58.808,140.992
			c2.753,2.73,5.674,5.434,8.497,8.051c1.727,1.599,3.454,3.199,5.161,4.818l126.096,119.571
			c19.586-18.572,131.258-124.466,131.68-124.866c3.675-3.485,6.978-6.629,10.206-9.87h-0.003
			c36.021-36.179,56.678-86.732,56.678-138.696C455.78,97.543,366.706,8.469,257.219,8.469z"/>
	</g>
	<g>
		<path class="st1" d="M257.207,18.351c-104.028,0-188.662,84.635-188.662,188.691c0,49.91,20.354,98.749,55.867,133.951
			c2.654,2.626,5.364,5.166,8.271,7.82c1.75,1.637,3.501,3.275,5.251,4.913l119.272,113.118
			c30.799-29.189,124.297-117.861,124.89-118.426c3.783-3.584,6.916-6.549,9.993-9.654c34.187-34.356,53.807-82.375,53.807-131.721
			C445.897,102.986,361.263,18.351,257.207,18.351z M257.207,306.468c-56.319,0-102.137-45.818-102.137-102.165
			c0-56.32,45.818-102.136,102.137-102.136c56.347,0,102.165,45.816,102.165,102.136
			C359.372,260.651,313.554,306.468,257.207,306.468z"/>
	</g>
	<g>
		<path class="st0" d="M460.014,512H54.424c-1.412,0-2.731-0.704-3.518-1.877c-0.786-1.173-0.936-2.661-0.4-3.967l63.161-153.73
			c0.531-1.292,1.664-2.238,3.03-2.531c1.365-0.296,2.786,0.105,3.8,1.066l136.72,129.502l136.541-129.5
			c1.012-0.961,2.429-1.359,3.799-1.068c1.365,0.292,2.498,1.237,3.03,2.527l63.341,153.73c0.538,1.307,0.389,2.795-0.397,3.969
			C462.746,511.296,461.426,512,460.014,512z M60.741,503.531H453.69l-58.58-142.176L260.133,489.369
			c-1.635,1.548-4.189,1.55-5.827,0.002L119.155,361.355L60.741,503.531z"/>
	</g>
	<g>
		<path class="st0" d="M419.924,490.529H257.207c-1.733,0-3.292-1.057-3.934-2.667c-0.641-1.609-0.237-3.448,1.02-4.641
			L375.71,368.099c1.042-0.986,2.506-1.376,3.895-1.047c1.392,0.332,2.523,1.343,3.005,2.689l41.3,115.123
			c0.466,1.297,0.27,2.74-0.524,3.867C422.596,489.858,421.303,490.529,419.924,490.529z M267.826,482.06h146.08l-37.077-103.351
			L267.826,482.06z"/>
	</g>
	<g>
		<polygon class="st3" points="292.693,472.181 399.863,472.181 372.71,396.527 		"/>
	</g>
	<g>
		<path class="st0" d="M257.219,296.595c-50.883,0-92.279-41.396-92.279-92.279s41.395-92.279,92.279-92.279
			c50.882,0,92.279,41.396,92.279,92.279S308.101,296.595,257.219,296.595z M257.219,120.505c-46.213,0-83.81,37.597-83.81,83.81
			s37.597,83.81,83.81,83.81c46.212,0,83.81-37.597,83.81-83.81S303.431,120.505,257.219,120.505z"/>
	</g>
	<g>
		<path class="st0" d="M257.207,490.529H94.488c-1.378,0-2.67-0.671-3.463-1.797c-0.794-1.128-0.988-2.57-0.524-3.867
			l41.302-115.123c0.484-1.346,1.614-2.358,3.005-2.689c1.395-0.33,2.856,0.063,3.895,1.047l121.417,115.122
			c1.257,1.193,1.661,3.032,1.02,4.641C260.498,489.472,258.939,490.529,257.207,490.529z M100.506,482.06h146.08L137.584,378.709
			L100.506,482.06z"/>
	</g>
	<g>
		<polygon class="st3" points="141.703,396.527 114.551,472.181 221.721,472.181 		"/>
	</g>
	<g>
		
			<rect x="122.899" y="443.378" transform="matrix(0.3003 -0.9538 0.9538 0.3003 -312.5835 469.0979)" class="st0" width="81.111" height="8.468"/>
	</g>
	<g>
		<rect x="109.874" y="439.173" class="st0" width="102.065" height="8.469"/>
	</g>
	<g>
		
			<rect x="198.764" y="464.487" transform="matrix(0.1941 -0.981 0.981 0.1941 -285.1926 590.2773)" class="st0" width="35.826" height="8.47"/>
	</g>
	<g>
		
			<rect x="346.74" y="407.057" transform="matrix(0.9539 -0.3002 0.3002 0.9539 -118.1926 126.0192)" class="st0" width="8.468" height="81.111"/>
	</g>
	<g>
		<rect x="302.488" y="439.173" class="st0" width="102.05" height="8.469"/>
	</g>
	<g>
		
			<rect x="293.515" y="450.809" transform="matrix(0.981 -0.1941 0.1941 0.981 -85.3342 66.7248)" class="st0" width="8.47" height="35.827"/>
	</g>
	<g>
		<path class="st0" d="M42.696,291.351c-1.548-2.425-3.033-5.011-4.41-7.688l7.529-3.876c1.259,2.445,2.611,4.802,4.018,7.006
			L42.696,291.351z M34.582,275.669c-1.092-2.616-2.13-5.378-3.084-8.209l8.025-2.704c0.89,2.643,1.858,5.217,2.874,7.651
			L34.582,275.669z M28.969,259.109c-0.742-2.733-1.429-5.577-2.046-8.45l8.282-1.775c0.584,2.727,1.236,5.422,1.938,8.011
			L28.969,259.109z M25.309,242.148c-0.478-2.886-0.885-5.747-1.23-8.564l8.406-1.03c0.331,2.7,0.721,5.443,1.18,8.207
			L25.309,242.148z M23.197,224.993c-0.247-2.954-0.431-5.83-0.564-8.605l8.458-0.407c0.13,2.678,0.306,5.455,0.544,8.306
			L23.197,224.993z M22.365,207.775c-0.018-1.277-0.026-2.523-0.026-3.73c0-1.704,0.017-3.334,0.047-4.883l8.466,0.161
			c-0.028,1.498-0.044,3.075-0.044,4.722c0,1.169,0.008,2.373,0.026,3.609L22.365,207.775z M31.149,191.004l-8.458-0.454
			c0.289-5.383,0.648-8.568,0.663-8.701l8.414,0.955C31.765,182.836,31.422,185.899,31.149,191.004z"/>
	</g>
</g>
</svg>
