<?xml version="1.0" encoding="utf-8"?>
<!-- Generator: Adobe Illustrator 18.0.0, SVG Export Plug-In . SVG Version: 6.00 Build 0)  -->
<!DOCTYPE svg PUBLIC "-//W3C//DTD SVG 1.1//EN" "http://www.w3.org/Graphics/SVG/1.1/DTD/svg11.dtd">
<svg version="1.1" id="Layer_1" xmlns="http://www.w3.org/2000/svg" xmlns:xlink="http://www.w3.org/1999/xlink" x="0px" y="0px"
	 width="256px" height="256px" viewBox="0 0 256 256" enable-background="new 0 0 256 256" xml:space="preserve">
<g>
	<g>
		<g>
			<g>
				<path fill="#F68F6F" d="M74.8,35.8l1.2-2.9c0.6-1.4,0.9-3,0.9-4.5c0-2.2-0.6-4.3-1.6-6.1L73.3,19l133.9,0
					c5.7,0,10.3,4.6,10.3,10.3l0,6.4L74.8,35.8z"/>
				<path fill="#F68F6F" d="M16,35.8l-1.2-2.9c-0.6-1.4-0.9-3-0.9-4.5c0-2.2,0.6-4.3,1.6-6.1l1.9-3.2v0c-5.7,0-9.5,4.6-9.5,10.3
					l0,6.4L16,35.8z"/>
				<g>
					<rect x="1.6" y="39.8" fill="#4A555F" width="221.7" height="3.2"/>
				</g>
				<g>
					<path fill="#4A555F" d="M25.6,36.4c-2.2,0-4.2-0.8-5.7-2.4c-1.5-1.5-2.4-3.6-2.4-5.7c0-4.5,3.6-8.1,8.1-8.1
						c2.2,0,4.2,0.8,5.7,2.4c1.5,1.5,2.4,3.6,2.4,5.7C33.7,32.8,30,36.4,25.6,36.4z M25.6,23.4c-2.7,0-4.9,2.2-4.9,4.9
						c0,1.3,0.5,2.5,1.4,3.5c0.9,0.9,2.2,1.4,3.5,1.4c2.7,0,4.9-2.2,4.9-4.9c0-1.3-0.5-2.5-1.4-3.5C28.1,23.9,26.9,23.4,25.6,23.4z"
						/>
				</g>
				<g>
					<path fill="#4A555F" d="M45.1,36.4L45.1,36.4c-4.5,0-8.1-3.6-8.1-8.1c0-4.5,3.6-8.1,8.1-8.1s8.1,3.6,8.1,8.1
						C53.1,32.8,49.5,36.4,45.1,36.4z M45.1,23.4c-2.7,0-4.9,2.2-4.9,4.9c0,2.7,2.2,4.9,4.9,4.9c2.7,0,4.9-2.2,4.9-4.9
						C50,25.6,47.8,23.4,45.1,23.4z"/>
				</g>
				<g>
					<path fill="#4A555F" d="M64.5,36.4L64.5,36.4c-2.2,0-4.2-0.8-5.7-2.4c-1.5-1.5-2.4-3.6-2.4-5.7c0-4.5,3.6-8.1,8.1-8.1
						c4.5,0,8.1,3.6,8.1,8.1C72.6,32.8,69,36.4,64.5,36.4z M64.5,23.4c-2.7,0-4.9,2.2-4.9,4.9c0,1.3,0.5,2.5,1.4,3.5
						c0.9,0.9,2.2,1.4,3.5,1.4c2.7,0,4.9-2.2,4.9-4.9C69.4,25.6,67.2,23.4,64.5,23.4z"/>
				</g>
				<g>
					<path fill="#4A555F" d="M207.2,226.6l-189.5,0c-9.8,0-17.7-7.9-17.7-17.7L0,29.3c0-2.9,0.7-5.9,2.1-8.4
						c0.8-1.5,1.8-2.8,3.1-4.1c0.8-0.8,1.6-1.5,2.6-2.2c1-0.6,2-1.2,3-1.6c2.2-0.9,4.5-1.4,6.9-1.4l189.5,0c2.4,0,4.7,0.5,6.9,1.4
						c1,0.4,2,1,3,1.6c1,0.7,1.9,1.4,2.6,2.2c1.2,1.2,2.2,2.6,3,4.1c1.4,2.6,2.1,5.5,2.1,8.4l0,90.6l-26.5,27.4H209v79l-1.4,0.2
						C207.5,226.6,207.3,226.6,207.2,226.6z M17.7,14.8c-1.9,0-3.8,0.4-5.6,1.1c-0.9,0.4-1.7,0.8-2.5,1.3c-0.8,0.5-1.5,1.1-2.1,1.8
						c-1,1-1.9,2.1-2.5,3.3c-1.1,2.1-1.7,4.5-1.7,6.9l0,179.5c0,8,6.5,14.5,14.5,14.5l188.1,0v-72.8h-15l30.8-31.9l0-89.3
						c0-2.4-0.6-4.8-1.7-6.9c-0.7-1.2-1.5-2.3-2.5-3.3c-0.6-0.6-1.3-1.2-2.2-1.8c-0.8-0.5-1.6-1-2.4-1.3c-1.8-0.8-3.7-1.1-5.7-1.1
						L17.7,14.8z"/>
				</g>
			</g>
		</g>
	</g>
	<g>
		<g>
			<path fill="#71CDE1" d="M110.2,140.7l-1.6-1.6l-5.2,5.2l1.6,1.6c1.7,1.8,2.7,4.1,2.7,6.6c0,2.5-1,4.8-2.7,6.6l-24.2,24
				c-1.7,1.7-4.1,2.7-6.5,2.7c-2.5,0-4.8-1-6.6-2.7l-8.8-8.9c-1.7-1.8-2.7-4.1-2.7-6.6c0-2.5,1-4.8,2.7-6.5L83,137
				c1.7-1.7,4.1-2.7,6.5-2.7c2.5,0,4.8,1,6.6,2.7l2,2l5.2-5.2l-2-2c-3.2-3.2-7.4-4.9-11.9-4.9c-4.4,0-8.6,1.7-11.7,4.8l-24.2,24
				c-3.2,3.1-4.9,7.3-4.9,11.8c0,4.5,1.7,8.7,4.8,11.8l8.8,8.9c3.1,3.2,7.4,4.9,11.9,4.9c4.4,0,8.6-1.7,11.7-4.8l24.2-24
				c3.2-3.1,4.9-7.3,4.9-11.8C115,148.1,113.3,143.9,110.2,140.7z"/>
		</g>
		<g>
			<path fill="#71CDE1" d="M174.5,77.5l-8.8-8.9c-3.2-3.2-7.4-4.9-11.9-4.9c-4.4,0-8.6,1.7-11.7,4.8l-24.2,24
				c-3.2,3.1-4.9,7.3-4.9,11.8s1.7,8.7,4.8,11.8l1.6,1.6l5.2-5.3l-1.6-1.6c-1.7-1.8-2.7-4.1-2.7-6.6c0-2.5,1-4.8,2.7-6.6l24.2-24
				c1.7-1.7,4.1-2.7,6.5-2.7c2.5,0,4.8,1,6.6,2.7l8.8,8.9c1.7,1.8,2.7,4.1,2.7,6.6c0,2.5-1,4.8-2.7,6.5l-24.2,24
				c-1.7,1.7-4.1,2.7-6.5,2.7c-2.5,0-4.8-1-6.6-2.7l-2-2l-5.3,5.2l2,2c3.2,3.2,7.4,4.9,11.9,4.9c4.4,0,8.6-1.7,11.7-4.8l24.2-24
				c3.2-3.1,4.9-7.3,4.9-11.8C179.4,84.9,177.7,80.7,174.5,77.5z"/>
		</g>
		<g>
			
				<rect x="83.8" y="124.7" transform="matrix(-0.7071 0.7071 -0.7071 -0.7071 285.4328 138.679)" fill="#71CDE1" width="60.3" height="7.4"/>
		</g>
	</g>
	<g>
		<g>
			<g>
				<path fill="#4A555F" d="M74.1,194.8c-4.9,0-9.5-1.9-13-5.4l-8.8-8.9c-3.4-3.5-5.3-8.1-5.3-13c0-4.9,1.9-9.5,5.4-12.9l24.2-24
					c3.4-3.4,8-5.3,12.9-5.3c4.9,0,9.5,1.9,13,5.4l3.1,3.1l-7.5,7.5l-3.1-3.1c-1.5-1.5-3.4-2.3-5.5-2.3c-2,0-4,0.8-5.4,2.2l-24.2,24
					c-1.5,1.4-2.3,3.4-2.3,5.4c0,2,0.8,4,2.2,5.4l8.8,8.9c1.5,1.5,3.4,2.3,5.5,2.3c2,0,4-0.8,5.4-2.2l24.2-24
					c1.5-1.4,2.3-3.4,2.3-5.4c0-2-0.8-4-2.2-5.4l-2.7-2.7l7.5-7.5l2.7,2.7c3.4,3.5,5.3,8.1,5.3,13c0,4.9-1.9,9.5-5.4,12.9l-24.2,24
					C83.5,192.9,78.9,194.8,74.1,194.8z M89.5,128.5c-4,0-7.8,1.6-10.6,4.4l-24.2,24c-2.9,2.8-4.4,6.6-4.5,10.7
					c0,4,1.5,7.8,4.4,10.7l8.8,8.9c2.9,2.9,6.7,4.5,10.7,4.5c4,0,7.8-1.6,10.6-4.4l24.2-24c2.9-2.8,4.5-6.6,4.5-10.7
					c0-4-1.5-7.8-4.4-10.7l-0.5-0.5l-3,3l0.4,0.4c2,2.1,3.2,4.8,3.2,7.7c0,2.9-1.2,5.6-3.2,7.7l-24.2,24c-2.1,2-4.8,3.1-7.6,3.1
					c-2.9,0-5.7-1.1-7.7-3.2l-8.8-8.9c-2-2.1-3.2-4.8-3.1-7.7c0-2.9,1.2-5.6,3.2-7.7l24.2-24c2-2,4.8-3.2,7.7-3.2
					c2.9,0,5.7,1.1,7.7,3.2l0.9,0.9l3-3l-0.8-0.9C97.4,130.1,93.6,128.5,89.5,128.5z"/>
			</g>
		</g>
		<g>
			<g>
				<path fill="#4A555F" d="M138.5,131.6c-4.9,0-9.5-1.9-13-5.4l-3.1-3.1l7.5-7.5l3.1,3.1c1.4,1.5,3.4,2.3,5.5,2.3
					c2,0,4-0.8,5.4-2.2l24.2-24c1.5-1.4,2.3-3.4,2.3-5.4c0-2-0.8-4-2.2-5.4l-8.8-8.9c-1.4-1.5-3.4-2.3-5.5-2.3c-2,0-4,0.8-5.4,2.2
					l-24.2,24c-1.5,1.4-2.3,3.4-2.3,5.4c0,2,0.8,4,2.2,5.4l2.7,2.7l-7.5,7.5l-2.7-2.7c-3.4-3.5-5.3-8.1-5.3-13
					c0-4.9,1.9-9.5,5.4-12.9l24.2-24c3.4-3.4,8-5.3,12.9-5.3c4.9,0,9.5,1.9,13,5.4l8.8,8.9c3.4,3.5,5.3,8.1,5.3,12.9
					c0,4.9-1.9,9.5-5.4,12.9l-24.2,24C147.9,129.7,143.3,131.6,138.5,131.6z M126.9,123.1l0.9,0.9c2.9,2.9,6.7,4.5,10.7,4.5
					c4,0,7.8-1.6,10.6-4.4l24.2-24c2.9-2.8,4.4-6.6,4.5-10.7c0-4-1.5-7.8-4.4-10.7l-8.8-8.9c-2.9-2.9-6.7-4.5-10.7-4.5
					c-4,0-7.8,1.6-10.6,4.4l-24.2,24c-2.9,2.8-4.4,6.6-4.5,10.7c0,4,1.5,7.8,4.4,10.7l0.5,0.5l3-3l-0.4-0.4c-2-2.1-3.2-4.8-3.2-7.7
					c0-2.9,1.2-5.6,3.2-7.7l24.2-24c2-2,4.8-3.1,7.6-3.1c2.9,0,5.7,1.1,7.7,3.2l8.8,8.9c2,2.1,3.2,4.8,3.2,7.7
					c0,2.9-1.2,5.6-3.2,7.7l-24.2,24c-2,2-4.7,3.2-7.6,3.2c-2.9,0-5.7-1.1-7.7-3.2l-0.9-0.9L126.9,123.1z"/>
			</g>
		</g>
		<g>
			<g>
				<path fill="#4A555F" d="M95.3,154.7l-7.5-7.5l44.9-44.9l7.5,7.5L95.3,154.7z M92.3,147.2l3,3l40.4-40.4l-3-3L92.3,147.2z"/>
			</g>
		</g>
	</g>
	<g>
		<path fill="#4A555F" d="M162.4,187.9c-10.2,0-18.6-8.3-18.6-18.6c0-10.2,8.3-18.6,18.6-18.6c10.2,0,18.6,8.3,18.6,18.6
			C181,179.6,172.6,187.9,162.4,187.9z M162.4,154c-8.5,0-15.4,6.9-15.4,15.4c0,8.5,6.9,15.4,15.4,15.4c8.5,0,15.4-6.9,15.4-15.4
			C177.8,160.9,170.9,154,162.4,154z"/>
	</g>
	<path fill="#FFD552" d="M162.4,181.1c-6.4,0-11.7-5.2-11.7-11.7c0-6.4,5.2-11.7,11.7-11.7c6.4,0,11.7,5.2,11.7,11.7
		C174.1,175.8,168.8,181.1,162.4,181.1z"/>
	<g>
		<path fill="#4A555F" d="M114,194.4c-0.4,0-0.9,0-1.3,0l0.1-3.2c0.4,0,0.8,0,1.2,0l0.7,0c0.4,0,0.8,0,1.2,0l0.1,3.2
			c-0.4,0-0.8,0-1.3,0L114,194.4z M109.4,194.3c-1.1-0.1-2.2-0.2-3.2-0.3l0.4-3.2c1,0.1,2.1,0.2,3.1,0.3L109.4,194.3z M119.2,194.2
			L119,191c1-0.1,2.1-0.2,3.1-0.3l0.4,3.2C121.4,194,120.3,194.1,119.2,194.2z M103,193.5c-1.1-0.2-2.1-0.4-3.2-0.6l0.7-3.1
			c1,0.2,2,0.4,3,0.6L103,193.5z M125.7,193.4l-0.6-3.1c1-0.2,2-0.4,3-0.6l0.7,3.1C127.8,193,126.7,193.2,125.7,193.4z M96.6,192.1
			c-0.8-0.2-1.6-0.4-2.4-0.7l-0.8-0.3l1.1-3l0.7,0.3c0.7,0.2,1.4,0.4,2.2,0.6L96.6,192.1z M132,191.9l-0.9-3.1c1-0.3,2-0.6,3-0.9
			l1,3C134.1,191.3,133,191.6,132,191.9z M138.2,189.8l-1.2-3c1-0.4,1.9-0.8,2.9-1.2l1.3,2.9C140.2,189,139.2,189.4,138.2,189.8z
			 M144.1,187.1l-1.5-2.8c0.9-0.5,1.8-1,2.7-1.5l1.6,2.8C146,186.1,145.1,186.7,144.1,187.1z"/>
	</g>
	<g>
		<path fill="#4A555F" d="M176.5,149.7l-3-1c0.3-1,0.6-2,0.9-3l3.1,0.9C177.1,147.6,176.8,148.7,176.5,149.7z M178.2,143.4l-3.1-0.7
			c0.2-1,0.4-2,0.6-3l3.1,0.6C178.7,141.3,178.5,142.4,178.2,143.4z M179.4,137l-3.2-0.4c0.1-1,0.2-2.1,0.3-3.1l3.2,0.3
			C179.7,134.8,179.5,135.9,179.4,137z M179.9,130.5l-3.2-0.1c0-0.6,0-1.3,0-1.9l0-1.2l3.2-0.1l0,1.2
			C180,129.1,179.9,129.8,179.9,130.5z M176.6,124.2c-0.1-1-0.2-2.1-0.3-3.1l3.2-0.4c0.1,1.1,0.2,2.2,0.3,3.2L176.6,124.2z
			 M175.9,118.1c-0.2-1-0.4-2-0.6-3l3.1-0.7c0.2,1.1,0.4,2.1,0.6,3.2L175.9,118.1z M174.6,112c-0.3-1-0.6-2-0.9-3l3-1
			c0.3,1,0.6,2.1,0.9,3.1L174.6,112z"/>
	</g>
	<g>
		<path fill="#4A555F" d="M51.1,148.5c-0.3-1-0.6-2.1-0.9-3.1l3.1-0.8c0.3,1,0.6,2,0.9,3L51.1,148.5z M49.5,142.2
			c-0.2-1.1-0.4-2.1-0.6-3.2l3.1-0.5c0.2,1,0.4,2,0.6,3L49.5,142.2z M48.4,135.8c-0.1-1.1-0.2-2.2-0.3-3.2l3.2-0.2
			c0.1,1,0.2,2.1,0.3,3.1L48.4,135.8z M48,129.3l0-0.8c0-0.8,0-1.6,0-2.4l3.2,0.1c0,0.8,0,1.5,0,2.3l0,0.8L48,129.3z M51.4,123.1
			l-3.2-0.3c0.1-1.1,0.2-2.2,0.4-3.2l3.2,0.4C51.6,121,51.5,122,51.4,123.1z M52.3,116.9l-3.1-0.6c0.2-1.1,0.4-2.1,0.7-3.2l3.1,0.7
			C52.7,114.9,52.5,115.9,52.3,116.9z M53.7,110.9l-3.1-0.9c0.3-1,0.6-2.1,1-3.1l3,1C54.3,108.9,54,109.9,53.7,110.9z M55.7,105
			l-2.9-1.2c0.4-1,0.8-2,1.3-3l2.9,1.3C56.5,103.1,56.1,104.1,55.7,105z M58.3,99.4l-2.8-1.5c0.5-1,1-1.9,1.6-2.9l2.7,1.6
			C59.3,97.5,58.8,98.5,58.3,99.4z M61.5,94l-2.7-1.7c0.6-0.9,1.2-1.8,1.9-2.7l2.6,1.9C62.7,92.3,62.1,93.2,61.5,94z M65.2,89
			l-2.5-2c0.7-0.8,1.4-1.7,2.1-2.5l2.4,2.1C66.5,87.4,65.8,88.2,65.2,89z M69.3,84.4L67,82.2c0.8-0.8,1.5-1.5,2.3-2.3l2.2,2.3
			C70.8,82.9,70,83.7,69.3,84.4z M73.9,80.2l-2-2.4c0.8-0.7,1.7-1.4,2.6-2l1.9,2.5C75.5,78.9,74.6,79.5,73.9,80.2z M78.8,76.5
			L77,73.8c0.9-0.6,1.8-1.2,2.7-1.8l1.7,2.7C80.5,75.3,79.6,75.9,78.8,76.5z M84.1,73.2l-1.5-2.8c1-0.5,1.9-1,2.9-1.5l1.4,2.9
			C85.9,72.3,85,72.8,84.1,73.2z M89.7,70.6l-1.2-2.9c1-0.4,2-0.8,3-1.2l1.1,3C91.6,69.8,90.6,70.2,89.7,70.6z M135.2,69.3l-1.8-0.6
			c-0.4-0.1-0.8-0.3-1.2-0.4l0.9-3c0.4,0.1,0.9,0.3,1.3,0.4l1.8,0.6L135.2,69.3z M95.5,68.4l-0.9-3c1-0.3,2.1-0.6,3.1-0.9l0.8,3.1
			C97.5,67.9,96.5,68.1,95.5,68.4z M129.2,67.5c-1-0.2-2-0.5-3-0.7l0.6-3.1c1.1,0.2,2.1,0.4,3.2,0.7L129.2,67.5z M101.5,66.9
			l-0.6-3.1c1.1-0.2,2.1-0.4,3.2-0.6l0.5,3.1C103.5,66.5,102.5,66.7,101.5,66.9z M123.1,66.3c-1-0.1-2.1-0.3-3.1-0.4l0.3-3.2
			c1.1,0.1,2.2,0.2,3.2,0.4L123.1,66.3z M107.6,66l-0.3-3.2c1.1-0.1,2.2-0.2,3.2-0.2l0.2,3.2C109.7,65.8,108.7,65.9,107.6,66z
			 M116.9,65.7c-1,0-1.9-0.1-2.9-0.1l-0.2,0v-3.2l0.2,0c0,0,0,0,0,0c1,0,2.1,0,3.1,0.1L116.9,65.7z"/>
	</g>
	<g>
		<rect x="160.8" y="159.7" fill="#4A555F" width="3.2" height="19.4"/>
	</g>
	<g>
		<rect x="152.7" y="167.8" fill="#4A555F" width="19.4" height="3.2"/>
	</g>
	<g>
		<path fill="#4A555F" d="M241,244.3h-35.2v-93.8h-15l32.6-33.7l32.6,33.7h-15V244.3z M209,241.2h28.8v-93.8h10.7l-25.1-25.9
			l-25.1,25.9H209V241.2z"/>
	</g>
	<polygon fill="#F68F6F" points="212.7,237.4 212.7,143.7 207.1,143.7 223.4,126.8 239.7,143.7 234.1,143.7 234.1,237.4 	"/>
</g>
</svg>
