<?xml version="1.0" encoding="utf-8"?>
<!-- Generator: Adobe Illustrator 21.0.0, SVG Export Plug-In . SVG Version: 6.00 Build 0)  -->
<svg version="1.1" id="Layer_1" xmlns="http://www.w3.org/2000/svg" xmlns:xlink="http://www.w3.org/1999/xlink" x="0px" y="0px"
	 viewBox="0 0 512 512" style="enable-background:new 0 0 512 512;" xml:space="preserve">
<style type="text/css">
	.st0{fill:#4A555F;}
	.st1{fill:#F58E6F;}
	.st2{fill:#DFDFDF;}
	.st3{fill:#FFD452;}
	.st4{fill:#71CCE0;}
	.st5{fill:none;}
	.st6{fill:#FFFFFF;}
</style>
<g>
	<g>
		<path class="st0" d="M70.546,495.074h-7.698v-7.698h7.698V495.074z M55.15,495.074h-0.495c-2.585,0-5.182-0.183-7.717-0.544
			l1.083-7.62c2.179,0.309,4.41,0.466,6.634,0.466h0.495V495.074z M38.859,492.747c-2.637-0.797-5.235-1.804-7.722-2.994
			l3.325-6.944c2.132,1.021,4.36,1.886,6.622,2.568L38.859,492.747z M23.967,485.625c-2.269-1.545-4.444-3.279-6.465-5.152
			l5.235-5.646c1.74,1.614,3.611,3.106,5.563,4.435L23.967,485.625z M11.881,474.408c-1.713-2.153-3.276-4.453-4.646-6.836
			l6.673-3.836c1.178,2.05,2.522,4.027,3.997,5.879L11.881,474.408z M3.669,460.112c-0.996-2.57-1.802-5.235-2.394-7.921
			l7.518-1.659c0.509,2.305,1.199,4.593,2.054,6.798L3.669,460.112z M0.115,444C0.039,442.816,0,441.622,0,440.419v-4.363h7.698
			v4.363c0,1.035,0.034,2.064,0.1,3.082L0.115,444z M7.698,428.358H0v-7.698h7.698V428.358z M7.698,412.962H0v-7.698h7.698V412.962z
			 M7.698,397.566H0v-7.698h7.698V397.566z M7.698,382.17H0v-7.698h7.698V382.17z M7.698,366.775H0v-7.698h7.698V366.775z
			 M7.698,351.379H0v-7.698h7.698V351.379z M7.698,335.983H0v-7.698h7.698V335.983z M7.698,320.587H0v-7.698h7.698V320.587z"/>
	</g>
	<g>
		<path class="st0" d="M344.372,474.536H57.212c-20.232,0-36.693-16.461-36.693-36.693V164.206c0-2.126,1.723-3.849,3.849-3.849
			h434.395c2.126,0,3.849,1.723,3.849,3.849v147.98h-7.698V168.055H28.217v269.788c0,15.989,13.007,28.995,28.995,28.995h287.16
			V474.536z"/>
	</g>
	<g>
		<path class="st0" d="M458.763,168.077H24.383c-2.126,0-3.849-1.723-3.849-3.849V112.29c0-23.238,18.905-42.143,42.143-42.143
			h16.874c2.126,0,3.849,1.723,3.849,3.849v21.441c0,8.992,6.9,16.475,15.382,16.679c4.344,0.091,8.372-1.492,11.445-4.492
			c3.068-2.994,4.757-7,4.757-11.279v-22.35c0-2.126,1.723-3.849,3.849-3.849h103.097c2.126,0,3.849,1.723,3.849,3.849v21.441
			c0,8.992,6.901,16.475,15.383,16.679c4.351,0.091,8.37-1.492,11.444-4.492c3.068-2.994,4.757-7,4.757-11.279v-22.35
			c0-2.126,1.723-3.849,3.849-3.849h103.098c2.126,0,3.849,1.723,3.849,3.849v22.35c0,4.279,1.689,8.284,4.757,11.279
			c3.073,2.999,7.114,4.582,11.444,4.492c8.482-0.204,15.382-7.687,15.382-16.679V73.996c0-2.126,1.723-3.849,3.849-3.849h16.874
			c23.239,0,42.145,18.905,42.145,42.143v51.939C462.612,166.355,460.89,168.077,458.763,168.077z M28.232,160.38h426.682v-48.09
			c0-18.993-15.452-34.445-34.447-34.445h-13.025v17.592c0,13.136-10.27,24.07-22.895,24.374
			c-6.401,0.147-12.436-2.218-17.007-6.678c-4.564-4.455-7.078-10.418-7.078-16.788V77.845h-95.4v18.501
			c0,6.37-2.513,12.333-7.078,16.788c-4.571,4.46-10.578,6.826-17.007,6.678c-12.624-0.304-22.896-11.239-22.896-24.374V77.845
			h-95.399v18.501c0,6.37-2.513,12.331-7.078,16.787c-4.571,4.462-10.583,6.827-17.008,6.679
			c-12.624-0.304-22.895-11.239-22.895-24.374V77.845H62.677c-18.993,0-34.445,15.452-34.445,34.445V160.38z"/>
	</g>
	<g>
		<path class="st1" d="M37.213,151.399V112.29c0-14.041,11.423-25.464,25.465-25.464h4.044v8.611
			c0,17.969,14.202,32.932,31.658,33.354l0.798,0.01c17.913,0,32.487-14.559,32.487-32.455v-9.519h77.437v8.611
			c0,17.969,14.202,32.932,31.66,33.354l0.797,0.01c17.912,0,32.486-14.559,32.486-32.455v-9.519h77.438v9.519
			c0,17.896,14.574,32.455,32.488,32.455l0.797-0.01c17.456-0.422,31.656-15.385,31.656-33.354v-8.611h4.045
			c14.04,0,25.464,11.423,25.464,25.465v39.108H37.213z"/>
	</g>
	<g>
		<path class="st2" d="M99.188,115.969L99.188,115.969c-10.844,0-19.634-8.791-19.634-19.634V50.917
			c0-10.844,8.791-19.634,19.634-19.634l0,0c10.844,0,19.634,8.791,19.634,19.634v45.418
			C118.822,107.178,110.031,115.969,99.188,115.969z"/>
	</g>
	<g>
		<path class="st2" d="M241.57,115.969L241.57,115.969c-10.844,0-19.634-8.791-19.634-19.634V50.917
			c0-10.844,8.791-19.634,19.634-19.634l0,0c10.844,0,19.634,8.791,19.634,19.634v45.418
			C261.205,107.178,252.414,115.969,241.57,115.969z"/>
	</g>
	<g>
		<path class="st2" d="M383.953,115.969L383.953,115.969c-10.844,0-19.634-8.791-19.634-19.634V50.917
			c0-10.844,8.791-19.634,19.634-19.634l0,0c10.844,0,19.634,8.791,19.634,19.634v45.418
			C403.588,107.178,394.797,115.969,383.953,115.969z"/>
	</g>
	<g>
		<path class="st0" d="M99.188,119.817c-12.949,0-23.483-10.535-23.483-23.483V50.917c0-12.949,10.535-23.484,23.483-23.484
			s23.484,10.535,23.484,23.484v45.417C122.671,109.283,112.136,119.817,99.188,119.817z M99.188,35.131
			c-8.704,0-15.786,7.082-15.786,15.786v45.417c0,8.704,7.082,15.786,15.786,15.786s15.786-7.082,15.786-15.786V50.917
			C114.973,42.213,107.892,35.131,99.188,35.131z"/>
	</g>
	<g>
		<path class="st0" d="M241.571,119.817c-12.949,0-23.484-10.535-23.484-23.483V50.917c0-12.949,10.535-23.484,23.484-23.484
			c12.949,0,23.483,10.535,23.483,23.484v45.417C265.054,109.283,254.52,119.817,241.571,119.817z M241.571,35.131
			c-8.704,0-15.786,7.082-15.786,15.786v45.417c0,8.704,7.082,15.786,15.786,15.786c8.704,0,15.786-7.082,15.786-15.786V50.917
			C257.356,42.213,250.275,35.131,241.571,35.131z"/>
	</g>
	<g>
		<path class="st0" d="M427.968,58.565h-7.698v-7.698h7.698V58.565z M419.953,43.714c-0.314-2.282-0.866-4.533-1.639-6.692
			l7.249-2.594c0.95,2.657,1.628,5.428,2.015,8.233L419.953,43.714z M415.34,30.804c-1.198-1.961-2.605-3.808-4.18-5.492l5.621-5.26
			c1.932,2.065,3.657,4.331,5.127,6.737L415.34,30.804z M405.958,20.775c-1.883-1.331-3.904-2.471-6.009-3.388l3.075-7.056
			c2.585,1.125,5.067,2.525,7.377,4.157L405.958,20.775z M393.382,15.301c-2.245-0.465-4.553-0.7-6.861-0.7V6.903
			c2.832,0,5.664,0.289,8.422,0.861L393.382,15.301z"/>
	</g>
	<g>
		<path class="st0" d="M383.953,119.817c-12.948,0-23.482-10.535-23.482-23.483V50.917c0-12.949,10.535-23.484,23.482-23.484
			c12.949,0,23.484,10.535,23.484,23.484v45.417C407.436,109.283,396.902,119.817,383.953,119.817z M383.953,35.131
			c-8.704,0-15.784,7.082-15.784,15.786v45.417c0,8.704,7.08,15.786,15.784,15.786s15.786-7.082,15.786-15.786V50.917
			C399.738,42.213,392.657,35.131,383.953,35.131z"/>
	</g>
	<g>
		<path class="st3" d="M420.479,317.447v17.962c-38.438,0-69.718,31.28-69.718,69.718c0,17.294,6.364,33.383,17.089,45.751
			c0.154,0.18,0.308,0.334,0.462,0.513l-13.548,11.752c-0.231-0.257-0.462-0.513-0.693-0.77
			c-13.266-15.37-21.272-35.359-21.272-57.247C332.799,356.706,372.059,317.447,420.479,317.447z"/>
	</g>
	<g>
		<rect x="174.149" y="212.755" class="st1" width="44.073" height="44.073"/>
	</g>
	<g>
		<rect x="266.082" y="212.755" class="st1" width="44.073" height="44.073"/>
	</g>
	<g>
		<rect x="358.016" y="212.755" class="st1" width="44.073" height="44.073"/>
	</g>
	<g>
		<rect x="82.215" y="295.418" class="st1" width="44.073" height="44.073"/>
	</g>
	<g>
		<rect x="174.149" y="295.418" class="st1" width="44.073" height="44.073"/>
	</g>
	<g>
		<rect x="82.215" y="378.679" class="st1" width="44.073" height="44.073"/>
	</g>
	<g>
		<rect x="174.149" y="378.679" class="st1" width="44.073" height="44.073"/>
	</g>
	<g>
		<rect x="266.082" y="295.418" class="st1" width="44.073" height="44.073"/>
	</g>
	<g>
		<rect x="266.083" y="378.679" transform="matrix(1 -0.005 0.005 1 -2.0121 1.4544)" class="st1" width="44.073" height="44.073"/>
	</g>
	<g>
		<path class="st1" d="M402.081,295.431v10.879c-16.422,3.054-31.459,10.11-44.058,20.118v-30.997H402.081z"/>
	</g>
	<g>
		<path class="st0" d="M379.463,505.097l-2.972-7.102l20.142-8.432l-6.253-19.225l7.32-2.381l7.351,22.596
			c0.62,1.904-0.326,3.967-2.174,4.741L379.463,505.097z"/>
	</g>
	<g>
		<path class="st0" d="M420.475,418.744c-7.014,0-12.721-5.707-12.721-12.722c0-7.014,5.707-12.721,12.721-12.721
			c7.015,0,12.722,5.707,12.722,12.721C433.198,413.037,427.49,418.744,420.475,418.744z M420.475,400.999
			c-2.77,0-5.023,2.253-5.023,5.023s2.253,5.024,5.023,5.024c2.77,0,5.024-2.254,5.024-5.024S423.246,400.999,420.475,400.999z"/>
	</g>
	<g>
		<rect x="416.626" y="347.017" class="st0" width="7.698" height="50.133"/>
	</g>
	<g>
		
			<rect x="385.871" y="418.842" transform="matrix(0.7627 -0.6468 0.6468 0.7627 -177.9983 360.2896)" class="st0" width="32.144" height="7.698"/>
	</g>
	<g>
		<path class="st0" d="M443.674,493.68l-1.947-7.447c36.843-9.627,62.575-42.978,62.575-81.103
			c0-46.223-37.604-83.827-83.827-83.827s-83.827,37.604-83.827,83.827c0,38.124,25.733,71.475,62.576,81.103l-1.947,7.447
			c-40.23-10.512-68.327-46.926-68.327-88.55c0-50.466,41.058-91.525,91.525-91.525S512,354.664,512,405.13
			C512,446.755,483.903,483.168,443.674,493.68z"/>
	</g>
</g>
</svg>
