<?xml version="1.0" encoding="utf-8"?>
<!-- Generator: Adobe Illustrator 21.0.0, SVG Export Plug-In . SVG Version: 6.00 Build 0)  -->
<svg version="1.1" id="Layer_1" xmlns="http://www.w3.org/2000/svg" xmlns:xlink="http://www.w3.org/1999/xlink" x="0px" y="0px"
	 viewBox="0 0 512 512" style="enable-background:new 0 0 512 512;" xml:space="preserve">
<style type="text/css">
	.st0{fill:#4A555F;}
	.st1{fill:#DFDFDF;}
	.st2{fill:#FFD452;}
	.st3{fill:#F58E6F;}
	.st4{fill:#FFFFFF;}
	.st5{fill:#71CCE0;}
</style>
<g>
	<g>
		<g>
			<rect x="74.217" y="163.163" class="st5" width="121.437" height="14.846"/>
		</g>
	</g>
	<g>
		<g>
			<rect x="74.217" y="313.818" class="st5" width="121.437" height="14.845"/>
		</g>
	</g>
	<g>
		<g>
			<rect x="257.106" y="163.163" class="st5" width="121.437" height="14.846"/>
		</g>
	</g>
	<g>
		<g>
			<g>
				<path class="st2" d="M14.247,130.394v309.844c0,9.337,7.584,16.942,16.921,16.942h196.984V322.929l23.475-36.428h101.462
					l11.727,18.236h54.38V130.394H14.247z M206.606,420.226H63.257V303.202h143.349V420.226z M206.606,269.228H63.257V152.204
					h143.349V269.228z M389.496,269.228H246.147V152.204h143.349V269.228z"/>
			</g>
		</g>
	</g>
	<g>
		<g>
			<g>
				<path class="st0" d="M352.592,329.977l-14.295-22.983h-71.599l-15.756,25.332v156.923h7.294l36.97-132.89h187.705v-26.382
					H352.592z M476.335,349.783H290.209l-32.692,117.513V334.204l12.834-20.634h64.291l14.295,22.983h127.396V349.783z"/>
			</g>
		</g>
	</g>
	<g>
		<g>
			<polygon class="st5" points="330.38,321.241 274.615,321.241 265.189,336.395 265.189,411.097 284.381,342.111 343.361,342.111 
							"/>
		</g>
	</g>
	<g>
		<g>
			<g>
				<path class="st0" d="M290.209,349.779l-38.799,139.466h221.792L512,349.779H290.209z M468.206,482.669H260.065l35.141-126.314
					h208.14L468.206,482.669z"/>
			</g>
		</g>
	</g>
	<g>
		<g>
			<polygon class="st5" points="301.034,364.026 270.163,474.997 462.378,474.997 493.248,364.026 			"/>
		</g>
	</g>
	<g>
		<g>
			<path class="st0" d="M451.746,22.752H31.168C13.982,22.752,0,36.734,0,53.921v386.318c0,17.198,13.982,31.189,31.168,31.189
				h197.858v-6.576H31.168c-13.56,0-24.592-11.042-24.592-24.614V53.921c0-13.561,11.032-24.593,24.592-24.593h420.578
				c13.56,0,24.592,11.033,24.592,24.593v253.672h6.576V53.921C482.914,36.734,468.932,22.752,451.746,22.752z"/>
		</g>
	</g>
	<g>
		<g>
			<path class="st0" d="M451.746,22.751H31.168C13.982,22.751,0,36.734,0,53.92v22.007h6.576V53.92
				c0-13.561,11.032-24.593,24.592-24.593h420.578c13.56,0,24.592,11.032,24.592,24.593v22.007h6.576V53.92
				C482.914,36.734,468.932,22.751,451.746,22.751z"/>
		</g>
	</g>
	<g>
		<g>
			<rect x="3.282" y="72.637" class="st0" width="476.34" height="6.576"/>
		</g>
	</g>
	<g>
		<g>
			<rect x="3.282" y="116.154" class="st0" width="476.34" height="6.576"/>
		</g>
	</g>
	<g>
		<g>
			<g>
				<path class="st0" d="M27.425,85.946v23.738h430.836V85.946H27.425z M451.686,103.109H34.001V92.522h417.685V103.109z"/>
			</g>
		</g>
	</g>
	<g>
		<g>
			<g>
				<path class="st0" d="M39.84,38.265c-7.479,0-13.563,6.084-13.563,13.563s6.084,13.563,13.563,13.563
					c7.479,0,13.563-6.084,13.563-13.563S47.319,38.265,39.84,38.265z M39.84,58.816c-3.853,0-6.988-3.135-6.988-6.988
					s3.135-6.988,6.988-6.988c3.853,0,6.988,3.135,6.988,6.988S43.693,58.816,39.84,58.816z"/>
			</g>
		</g>
	</g>
	<g>
		<g>
			<g>
				<path class="st0" d="M71.82,38.265c-7.479,0-13.563,6.084-13.563,13.563s6.084,13.563,13.563,13.563s13.563-6.084,13.563-13.563
					S79.299,38.265,71.82,38.265z M71.82,58.816c-3.853,0-6.988-3.135-6.988-6.988s3.135-6.988,6.988-6.988s6.988,3.135,6.988,6.988
					S75.673,58.816,71.82,58.816z"/>
			</g>
		</g>
	</g>
	<g>
		<g>
			<g>
				<path class="st0" d="M103.801,38.265c-7.479,0-13.563,6.084-13.563,13.563s6.084,13.563,13.563,13.563
					s13.563-6.084,13.563-13.563S111.28,38.265,103.801,38.265z M103.801,58.816c-3.853,0-6.988-3.135-6.988-6.988
					s3.135-6.988,6.988-6.988s6.988,3.135,6.988,6.988S107.653,58.816,103.801,58.816z"/>
			</g>
		</g>
	</g>
	<g>
		<g>
			<g>
				<path class="st0" d="M59.97,148.922v123.586h149.931V148.922H59.97z M203.325,265.932H66.546V155.497h136.779V265.932z"/>
			</g>
		</g>
	</g>
	<g>
		<g>
			<g>
				<path class="st0" d="M242.859,148.922v123.586H392.79V148.922H242.859z M386.214,265.932H249.435V155.497h136.779V265.932z"/>
			</g>
		</g>
	</g>
	<g>
		<g>
			<g>
				<path class="st0" d="M59.97,299.918v123.586h149.931V299.918H59.97z M203.325,416.928H66.546V306.493h136.779V416.928z"/>
			</g>
		</g>
	</g>
	<g>
		<g>
			<g>
				<path class="st0" d="M454.974,163.026c-7.13,0-12.931,5.8-12.931,12.93v78.818c0,7.13,5.801,12.93,12.931,12.93
					c7.129,0,12.93-5.8,12.93-12.93v-78.818C467.904,168.826,462.103,163.026,454.974,163.026z M461.328,254.774
					c0,3.504-2.85,6.355-6.354,6.355c-3.504,0-6.355-2.851-6.355-6.355v-78.818c0-3.504,2.851-6.355,6.355-6.355
					c3.504,0,6.354,2.851,6.354,6.355V254.774z"/>
			</g>
		</g>
	</g>
	<g>
		<g>
			<rect x="426.868" y="119.435" class="st0" width="6.575" height="188.158"/>
		</g>
	</g>
	<g>
		<g>
			<rect x="63.258" y="185.681" class="st0" width="143.355" height="6.576"/>
		</g>
	</g>
	<g>
		<g>
			<g>
				<path class="st0" d="M118.327,174.545h6.576v-6.576h-6.576V174.545z M78.873,174.545h6.576v-6.576h-6.576V174.545z
					 M105.176,174.545h6.576v-6.576h-6.576V174.545z M131.478,174.545h6.576v-6.576h-6.576V174.545z M92.024,174.545H98.6v-6.576
					h-6.576V174.545z M144.63,174.545h6.575v-6.576h-6.575V174.545z M170.932,174.545h6.576v-6.576h-6.576V174.545z M184.083,167.97
					v6.576h6.575v-6.576H184.083z M157.781,174.545h6.576v-6.576h-6.576V174.545z"/>
			</g>
		</g>
	</g>
	<g>
		<g>
			<rect x="246.147" y="185.681" class="st0" width="143.355" height="6.576"/>
		</g>
	</g>
	<g>
		<g>
			<g>
				<path class="st0" d="M274.914,174.545h6.576v-6.576h-6.576V174.545z M301.216,174.545h6.575v-6.576h-6.575V174.545z
					 M288.065,174.545h6.576v-6.576h-6.576V174.545z M261.762,174.545h6.576v-6.576h-6.576V174.545z M366.972,167.97v6.576h6.576
					v-6.576H366.972z M340.67,174.545h6.575v-6.576h-6.575V174.545z M314.367,174.545h6.576v-6.576h-6.576V174.545z
					 M353.821,174.545h6.576v-6.576h-6.576V174.545z M327.519,174.545h6.576v-6.576h-6.576V174.545z"/>
			</g>
		</g>
	</g>
	<g>
		<g>
			<rect x="63.258" y="334.445" class="st0" width="143.355" height="6.576"/>
		</g>
	</g>
	<g>
		<g>
			<g>
				<path class="st0" d="M118.327,323.31h6.576v-6.576h-6.576V323.31z M92.024,323.31H98.6v-6.576h-6.576V323.31z M105.176,323.31
					h6.576v-6.576h-6.576V323.31z M78.873,323.31h6.576v-6.576h-6.576V323.31z M184.083,316.734v6.576h6.575v-6.576H184.083z
					 M131.478,323.31h6.576v-6.576h-6.576V323.31z M170.932,323.31h6.576v-6.576h-6.576V323.31z M157.781,323.31h6.576v-6.576
					h-6.576V323.31z M144.63,323.31h6.575v-6.576h-6.575V323.31z"/>
			</g>
		</g>
	</g>
	<g>
		<g>
			<g>
				<path class="st0" d="M118.327,323.31h6.576v-6.576h-6.576V323.31z M105.176,323.31h6.576v-6.576h-6.576V323.31z M78.873,323.31
					h6.576v-6.576h-6.576V323.31z M92.024,323.31H98.6v-6.576h-6.576V323.31z M157.781,323.31h6.576v-6.576h-6.576V323.31z
					 M131.478,323.31h6.576v-6.576h-6.576V323.31z M170.932,323.31h6.576v-6.576h-6.576V323.31z M184.083,316.734v6.576h6.575
					v-6.576H184.083z M144.63,323.31h6.575v-6.576h-6.575V323.31z"/>
			</g>
		</g>
	</g>
	<g>
		<g>
			<g>
				<path class="st0" d="M105.176,323.31h6.576v-6.576h-6.576V323.31z M78.873,323.31h6.576v-6.576h-6.576V323.31z M92.024,323.31
					H98.6v-6.576h-6.576V323.31z M118.327,323.31h6.576v-6.576h-6.576V323.31z M157.781,323.31h6.576v-6.576h-6.576V323.31z
					 M184.083,316.734v6.576h6.575v-6.576H184.083z M131.478,323.31h6.576v-6.576h-6.576V323.31z M170.932,323.31h6.576v-6.576
					h-6.576V323.31z M144.63,323.31h6.575v-6.576h-6.575V323.31z"/>
			</g>
		</g>
	</g>
	<g>
		<g>
			<g>
				<path class="st0" d="M105.176,323.31h6.576v-6.576h-6.576V323.31z M131.478,323.31h6.576v-6.576h-6.576V323.31z M78.873,323.31
					h6.576v-6.576h-6.576V323.31z M92.024,323.31H98.6v-6.576h-6.576V323.31z M118.327,323.31h6.576v-6.576h-6.576V323.31z
					 M144.63,323.31h6.575v-6.576h-6.575V323.31z M170.932,323.31h6.576v-6.576h-6.576V323.31z M184.083,316.734v6.576h6.575v-6.576
					H184.083z M157.781,323.31h6.576v-6.576h-6.576V323.31z"/>
			</g>
		</g>
	</g>
	<g>
		<g>
			<g>
				<path class="st0" d="M451.746,22.752H31.168C13.982,22.752,0,36.734,0,53.921v25.293h482.914V53.921
					C482.914,36.734,468.932,22.752,451.746,22.752z M476.338,72.638H6.576V53.921c0-13.561,11.032-24.593,24.592-24.593h420.578
					c13.56,0,24.592,11.033,24.592,24.593V72.638z"/>
			</g>
		</g>
	</g>
	<g>
		<g>
			<path class="st3" d="M451.746,36.999h-319.4c2.323,4.449,3.638,9.491,3.638,14.839c0,4.668-1.008,9.118-2.806,13.129h335.489
				V53.921C468.667,44.583,461.083,36.999,451.746,36.999z"/>
		</g>
	</g>
</g>
</svg>
