<?xml version="1.0" encoding="utf-8"?>
<!-- Generator: Adobe Illustrator 18.0.0, SVG Export Plug-In . SVG Version: 6.00 Build 0)  -->
<!DOCTYPE svg PUBLIC "-//W3C//DTD SVG 1.1//EN" "http://www.w3.org/Graphics/SVG/1.1/DTD/svg11.dtd">
<svg version="1.1" id="Layer_1" xmlns="http://www.w3.org/2000/svg" xmlns:xlink="http://www.w3.org/1999/xlink" x="0px" y="0px"
	 viewBox="0 0 512 512" style="enable-background:new 0 0 512 512;" xml:space="preserve">
<style type="text/css">
	.st0{fill:#4B555F;}
	.st1{fill:#FFD351;}
	.st2{fill:#F58E70;}
	.st3{fill:#71CBDF;}
	.st4{fill:#DFDFDE;}
	.st5{fill:#FFFFFF;}
	.st6{fill:none;}
	.st7{fill:#4A555F;}
	.st8{fill:#DFDFDF;}
	.st9{fill:#F58E6F;}
</style>
<g>
	<g>
		<g>
			<g>
				<path class="st7" d="M246.636,343.558c-9.521,0-19.295-1.55-27.602-3.065l-1.759-0.321l-68.443,68.42
					c-11.523,11.534-26.874,17.886-43.222,17.886c-16.349,0-31.706-6.352-43.241-17.888c-23.838-23.838-23.838-62.626,0-86.465
					l107.455-107.453c0.702-0.723,1.424-1.405,2.263-2.13c0.614-0.571,1.25-1.121,1.889-1.654c0.483-0.403,0.965-0.808,1.468-1.171
					l0.223-0.175c0.216-0.184,0.447-0.352,0.678-0.506l0.225-0.164c0.573-0.455,1.187-0.889,1.801-1.285l0.219-0.154
					c0.369-0.281,0.737-0.525,1.251-0.833c5.53-3.609,11.619-6.266,18.102-7.899c4.917-1.242,9.99-1.872,15.078-1.872
					c16.365,0,31.718,6.349,43.232,17.879c8.55,8.551,14.315,19.291,16.675,31.061l1.204,6.012l36.535-34.231l-0.967-2.209
					c-5.243-11.984-12.631-22.79-21.96-32.12c-14.807-14.805-33.456-24.781-53.992-28.858l-1.865-0.337
					c-3.385-0.634-6.839-1.087-10.247-1.343c-2.433-0.198-4.684-0.307-6.852-0.329c-1.16-0.023-2.295-0.023-3.459,0
					c-2.188,0.046-4.534,0.117-6.766,0.325c-1.117,0.071-2.258,0.189-3.431,0.314l-3.419,0.442c-1.12,0.163-2.239,0.349-3.354,0.539
					c-5.585,0.986-11.156,2.449-16.555,4.35c-14.948,5.259-28.237,13.635-39.498,24.897L30.882,290.641
					c-41.176,41.2-41.176,108.237,0.001,149.438c19.932,19.92,46.467,30.891,74.719,30.891c28.251,0,54.786-10.971,74.718-30.892
					l105.647-105.646l-14.122,4.948C263.819,342.191,255.573,343.558,246.636,343.558z M175.495,435.251
					c-18.642,18.632-43.464,28.893-69.893,28.893c-26.43,0-51.252-10.261-69.893-28.892
					c-38.518-38.539-38.518-101.248-0.001-139.787l107.418-107.418c10.533-10.534,22.962-18.368,36.938-23.286
					c5.05-1.778,10.256-3.146,15.455-4.063c1.042-0.178,2.106-0.355,3.095-0.5l3.289-0.425c1.021-0.108,2.064-0.219,3.185-0.291
					c1.998-0.185,3.994-0.256,6.374-0.305c0.534-0.01,1.063-0.016,1.593-0.016c0.529,0,1.057,0.006,1.625,0.017
					c2.036,0.021,4.13,0.122,6.421,0.309c3.18,0.239,6.385,0.659,9.546,1.251l1.829,0.33c19.149,3.802,36.59,13.131,50.438,26.979
					c8.152,8.153,14.72,17.511,19.544,27.841l-24.27,22.74c-3.182-10.817-9.027-20.663-17.108-28.744
					c-12.802-12.82-29.87-19.88-48.06-19.88c-5.651,0-11.285,0.7-16.746,2.079c-7.216,1.817-14,4.778-20.035,8.721
					c-0.576,0.34-1.128,0.706-1.679,1.12c-0.723,0.47-1.443,0.982-2.123,1.516c-0.372,0.253-0.742,0.528-1.094,0.821
					c-0.594,0.435-1.17,0.91-1.738,1.385c-0.73,0.608-1.458,1.241-2.068,1.811c-0.893,0.77-1.772,1.598-2.574,2.425L57.544,317.301
					c-26.5,26.5-26.5,69.617,0,96.116c12.824,12.823,29.894,19.886,48.066,19.886c18.173,0,35.237-7.063,48.048-19.886
					l65.915-65.892c8.213,1.461,17.678,2.857,27.063,2.857c5.189,0,10.169-0.426,15.018-1.29L175.495,435.251z"/>
			</g>
		</g>
	</g>
	<g>
		<g>
			<path class="st8" d="M277.284,193.677c-12.729-12.729-28.76-21.305-46.166-24.762l-1.96-0.355
				c-2.852-0.535-5.764-0.916-8.726-1.139c-2.081-0.17-3.99-0.262-5.943-0.283c-0.482-0.01-0.959-0.015-1.434-0.015
				c-0.477,0-0.953,0.005-1.426,0.015c-2.21,0.045-4.043,0.109-5.805,0.273l-0.33,0.026c-0.912,0.058-1.841,0.158-2.567,0.234
				l-3.161,0.409c-0.978,0.143-1.952,0.306-2.844,0.457c-4.794,0.846-9.575,2.103-14.215,3.737
				c-12.844,4.519-24.266,11.72-33.949,21.404L41.341,301.093c-35.417,35.436-35.417,93.095-0.004,128.526
				c17.138,17.129,39.961,26.563,64.265,26.563c24.302,0,47.127-9.434,64.263-26.56l71.41-71.41
				c-6.589-0.318-13.04-1.168-18.986-2.143l-62.996,62.974c-14.317,14.33-33.381,22.222-53.682,22.222
				c-20.298,0-39.368-7.891-53.697-22.218c-29.603-29.604-29.603-77.773,0-107.377l107.3-107.297
				c0.951-0.979,1.947-1.922,2.963-2.806c0.763-0.703,1.547-1.384,2.321-2.028c0.638-0.532,1.28-1.058,1.938-1.55
				c0.41-0.334,0.839-0.656,1.294-0.975c0.721-0.556,1.481-1.099,2.269-1.62c0.628-0.461,1.272-0.89,1.953-1.302
				c6.851-4.443,14.379-7.715,22.37-9.727c6.1-1.541,12.391-2.323,18.699-2.323c20.319,0,39.388,7.89,53.688,22.21
				c6.042,6.043,10.967,12.97,14.628,20.515l11.325-10.61C288.563,206.67,283.412,199.805,277.284,193.677z"/>
		</g>
	</g>
	<g>
		<g>
			<g>
				<path class="st7" d="M428.529,42.453c-19.93-19.932-46.469-30.908-74.727-30.908c-28.258,0-54.791,10.977-74.71,30.907
					l-109.091,109.09l14.182-5.004c11.741-4.142,24.049-6.242,36.585-6.242c6.556,0,13.156,0.586,19.62,1.744l1.754,0.314
					l68.413-68.437c11.53-11.529,26.886-17.879,43.241-17.879c16.358,0,31.717,6.35,43.247,17.879
					c23.844,23.844,23.844,62.642,0,86.487L289.626,267.82c-9.079,9.059-20.52,14.945-33.096,17.023
					c-3.358,0.564-6.788,0.85-10.196,0.85c-16.316,0-31.658-6.347-43.198-17.87c-10.139-10.139-16.397-23.604-17.62-37.915
					l-0.608-7.106l-38.255,36.623l0.777,2.101c5.277,14.25,13.434,26.954,24.239,37.759c13.805,13.827,31.138,23.527,50.129,28.049
					c8.024,1.901,16.284,2.865,24.549,2.865c28.279,0,54.83-10.978,74.762-30.912l107.418-107.418
					C469.723,150.674,469.723,83.647,428.529,42.453z M423.704,187.043L316.286,294.461c-18.644,18.645-43.482,28.913-69.937,28.913
					c-7.736,0-15.466-0.902-22.972-2.68c-17.757-4.228-33.966-13.299-46.879-26.233c-9.577-9.576-16.927-20.745-21.869-33.223
					l25.018-23.951c2.52,13.344,9.01,25.708,18.665,35.364c12.83,12.811,29.885,19.867,48.022,19.867
					c3.786,0,7.597-0.318,11.318-0.943c13.979-2.31,26.702-8.853,36.798-18.926L401.868,165.23
					c26.505-26.506,26.505-69.633,0-96.138c-12.818-12.819-29.891-19.878-48.072-19.878c-18.178,0-35.248,7.059-48.067,19.878
					l-65.905,65.929c-14.984-2.448-30.39-1.971-44.999,1.35l89.094-89.092c18.631-18.641,43.45-28.908,69.884-28.908
					s51.26,10.266,69.902,28.908C462.237,85.812,462.237,148.51,423.704,187.043z"/>
			</g>
		</g>
	</g>
	<g>
		<g>
			<path class="st8" d="M418.073,52.909c-17.138-17.139-39.963-26.577-64.271-26.577c-24.307,0-47.125,9.438-64.255,26.577
				l-72.662,72.66c1.292-0.04,2.586-0.059,3.882-0.059c5.417,0,10.862,0.354,16.253,1.053L300.1,63.462
				c14.322-14.322,33.392-22.21,53.697-22.21c20.308,0,39.38,7.888,53.702,22.21c29.609,29.609,29.609,77.788,0,107.398
				L300.071,278.287c-11.275,11.25-25.496,18.561-41.092,21.137c-4.164,0.7-8.418,1.054-12.645,1.054
				c-20.261,0-39.313-7.882-53.653-22.201c-7.474-7.475-13.251-16.403-17.033-26.141l-11.524,11.032
				c4.431,9.516,10.468,18.125,18.011,25.668c11.867,11.887,26.767,20.225,43.072,24.108c6.909,1.637,14.022,2.466,21.141,2.466
				c24.329,0,47.167-9.44,64.307-26.581l107.418-107.418c17.128-17.128,26.561-39.946,26.561-64.252S435.201,70.037,418.073,52.909z
				"/>
		</g>
	</g>
	<g>
		<g>
			<g>
				<path class="st7" d="M407.019,310.071c-44.958,0-81.534,36.576-81.534,81.534s36.575,81.534,81.534,81.534
					c44.958,0,81.535-36.576,81.535-81.534S451.977,310.071,407.019,310.071z M407.019,466.315
					c-41.195,0-74.709-33.515-74.709-74.71s33.514-74.71,74.709-74.71s74.71,33.515,74.71,74.71S448.214,466.315,407.019,466.315z"
					/>
			</g>
		</g>
	</g>
	<g>
		<g>
			<g>
				<path class="st7" d="M441.654,485.889l2.404,6.387c2.196-0.826,4.383-1.724,6.499-2.67l-2.781-6.231
					C445.783,484.265,443.722,485.111,441.654,485.889z M453.724,480.496l3.163,6.047c2.083-1.09,4.146-2.254,6.13-3.462
					l-3.546-5.83C457.611,478.382,455.677,479.474,453.724,480.496z M475.195,465.354l4.659,4.987
					c1.716-1.603,3.395-3.287,4.986-5.005l-5.005-4.64C478.353,462.295,476.792,463.862,475.195,465.354z M403.2,493.638
					l0.344,6.816c2.17-0.109,4.322-0.265,6.456-0.466l-0.642-6.795C407.325,493.386,405.271,493.534,403.2,493.638z
					 M415.966,492.409l0.975,6.755c2.314-0.334,4.634-0.729,6.897-1.173l-1.317-6.697
					C420.372,491.716,418.167,492.092,415.966,492.409z M429.002,489.842l1.671,6.617c2.271-0.573,4.541-1.213,6.748-1.902
					l-2.033-6.515C433.3,488.694,431.152,489.299,429.002,489.842z M464.988,473.639l3.926,5.583
					c1.917-1.347,3.809-2.777,5.622-4.248l-4.299-5.299C468.543,471.047,466.778,472.38,464.988,473.639z M504.119,407.641
					l6.765,0.909c0.308-2.289,0.554-4.636,0.734-6.975l-6.805-0.523C504.643,403.262,504.41,405.479,504.119,407.641z
					 M484.126,455.717l5.327,4.265c1.469-1.835,2.889-3.745,4.219-5.678l-5.622-3.87
					C486.813,452.232,485.493,454.01,484.126,455.717z M511.947,387.583l-6.822,0.191c0.034,1.24,0.051,2.47,0.051,3.691
					c0,0.992-0.011,1.978-0.033,2.958l6.822,0.158c0.024-1.032,0.036-2.07,0.036-3.116C512,390.181,511.983,388.888,511.947,387.583
					z M501.575,420.608l6.602,1.726c0.587-2.244,1.113-4.551,1.565-6.855l-6.698-1.312
					C502.621,416.333,502.126,418.5,501.575,420.608z M497.408,433.104l6.314,2.59c0.882-2.149,1.707-4.373,2.453-6.609
					l-6.475-2.157C499.003,429.019,498.232,431.097,497.408,433.104z M491.579,444.89l5.887,3.452
					c1.183-2.018,2.312-4.109,3.352-6.215l-6.118-3.025C493.73,441.064,492.68,443.011,491.579,444.89z"/>
			</g>
		</g>
	</g>
	<g>
		<g>
			<path class="st9" d="M407.019,324.857c-36.804,0-66.747,29.943-66.747,66.748c0,36.805,29.943,66.748,66.747,66.748
				c36.805,0,66.748-29.943,66.748-66.748C473.767,354.8,443.824,324.857,407.019,324.857z"/>
		</g>
	</g>
	<g>
		<g>
			<rect x="403.608" y="348.497" class="st7" width="6.825" height="86.217"/>
		</g>
	</g>
	<g>
		<g>
			<rect x="363.91" y="388.194" class="st7" width="86.218" height="6.825"/>
		</g>
	</g>
	<g>
		<g>
			<g>
				<path class="st7" d="M45.532,237.753l4.827,4.824l4.824-4.827l-4.827-4.824L45.532,237.753z M55.181,228.098l4.827,4.824
					l4.824-4.827l-4.827-4.824L55.181,228.098z M35.884,247.406l4.827,4.824l4.824-4.827l-4.827-4.824L35.884,247.406z
					 M64.829,218.444l4.827,4.824l4.824-4.827l-4.827-4.824L64.829,218.444z M117.897,165.347l-4.824,4.827l4.827,4.824l4.824-4.827
					L117.897,165.347z M26.235,257.06l4.827,4.824l4.824-4.827l-4.827-4.824L26.235,257.06z M74.479,208.79l4.827,4.824l4.824-4.827
					l-4.828-4.824L74.479,208.79z M103.424,179.828l4.827,4.825l4.825-4.827l-4.827-4.825L103.424,179.828z M93.776,189.482
					l4.827,4.824l4.824-4.827l-4.827-4.824L93.776,189.482z M84.127,199.136l4.827,4.825l4.825-4.827l-4.827-4.825L84.127,199.136z"
					/>
			</g>
		</g>
	</g>
</g>
</svg>
