<?xml version="1.0" encoding="utf-8"?>
<!-- Generator: Adobe Illustrator 21.0.0, SVG Export Plug-In . SVG Version: 6.00 Build 0)  -->
<svg version="1.1" id="Layer_1" xmlns="http://www.w3.org/2000/svg" xmlns:xlink="http://www.w3.org/1999/xlink" x="0px" y="0px"
	 viewBox="0 0 512 512" style="enable-background:new 0 0 512 512;" xml:space="preserve">
<style type="text/css">
	.st0{fill:#4A555F;}
	.st1{fill:#DFDFDF;}
	.st2{fill:#FFD452;}
	.st3{fill:#F58E6F;}
	.st4{fill:#FFFFFF;}
	.st5{fill:#71CCE0;}
</style>
<g>
	<g>
		<g>
			<g>
				<path class="st0" d="M222.963,233.74c-46.894,32.717-43.958,81.221-43.81,83.27l0.496,6.873l4.873-4.873
					c18.91-18.909,39.932-20.235,40.135-20.245l2.984-0.146l0.301-68.353L222.963,233.74z M221.365,292.8
					c-6.173,0.913-20.922,4.306-35.763,16.694c1.019-13.529,6.702-43.787,35.984-66.892L221.365,292.8z"/>
			</g>
		</g>
	</g>
	<g>
		<g>
			<path class="st3" d="M194.656,295.148c7.664-4.242,14.709-6.58,19.98-7.866l0.128-29.216
				C203.102,270.752,197.413,284.317,194.656,295.148z"/>
		</g>
	</g>
	<g>
		<g>
			<g>
				<path class="st0" d="M289.04,233.74l-4.979-3.473l0.287,65.366l0.021,2.974l2.969,0.158c0.209,0.011,21.231,1.337,40.141,20.246
					l4.873,4.872l0.496-6.872C332.995,314.962,335.934,266.457,289.04,233.74z M290.635,292.8l-0.222-50.198
					c29.287,23.106,34.967,53.367,35.984,66.892C311.557,297.106,296.808,293.713,290.635,292.8z"/>
			</g>
		</g>
	</g>
	<g>
		<g>
			<path class="st3" d="M297.236,258.101l0.13,29.181c5.252,1.282,12.263,3.609,19.898,7.821
				C314.484,284.284,308.801,270.737,297.236,258.101z"/>
		</g>
	</g>
	<g>
		<g>
			<g>
				<path class="st0" d="M263.782,228.347h-16.078l-6.991,36.338l15.03,60.336l15.028-60.336L263.782,228.347z M247.161,264.511
					l5.748-29.864h5.668l5.746,29.864l-8.58,34.447L247.161,264.511z"/>
			</g>
		</g>
	</g>
	<g>
		<g>
			<path class="st2" d="M255.528,306.423h-0.073c-10.022,0-18.147,8.125-18.147,18.147c0,6.036,1.515,11.976,4.407,17.275
				l13.812,25.307l13.768-25.328c2.873-5.285,4.378-11.206,4.378-17.221v-0.032C273.675,314.547,265.55,306.423,255.528,306.423z"/>
		</g>
	</g>
	<g>
		<g>
			<g>
				<path class="st0" d="M255.455,303.273c-11.743,0-21.297,9.554-21.297,21.297c0,6.543,1.657,13.039,4.793,18.784l16.584,30.382
					l16.531-30.408c3.113-5.729,4.76-12.204,4.76-18.725v-0.032C276.825,312.827,267.271,303.273,255.455,303.273z M270.525,324.602
					c0,5.473-1.382,10.908-3.995,15.717l-11.008,20.247l-11.043-20.231c-2.631-4.822-4.021-10.273-4.021-15.766
					c0-8.27,6.728-14.997,15.071-14.997c8.269,0,14.997,6.727,14.997,14.997V324.602z"/>
			</g>
		</g>
	</g>
	<g>
		<g>
			<g>
				<path class="st0" d="M426.177,175.074H304.994l0.181,3.321c0.018,0.318,0.035,0.619,0.035,0.938l0.008,0.232
					c0.016,0.204,0.012,0.422,0.012,0.64l0.002,0.458c0.078,2.462,0.117,4.963,0.117,7.465c0,4.226-0.086,8.358-0.256,12.307
					c-0.105,2.908-0.279,6.019-0.547,9.792l-0.242,3.375h111.573v208.988H96.122V213.601h112.92l-0.242-3.375
					c-0.263-3.67-0.441-6.874-0.547-9.814c-0.17-3.971-0.256-8.105-0.256-12.285c0-2.502,0.039-5.003,0.117-7.483l0.146-5.571
					H85.803c-14.722,0-26.701,11.978-26.701,26.701v230.302c0,14.723,11.978,26.701,26.701,26.701h340.374
					c14.722,0,26.701-11.978,26.701-26.701V201.776C452.877,187.052,440.899,175.074,426.177,175.074z M446.577,432.078
					c0,11.249-9.152,20.401-20.401,20.401H85.803c-11.248,0-20.401-9.152-20.401-20.401V201.776
					c0-11.249,9.152-20.401,20.401-20.401h115.986c-0.062,2.233-0.092,4.493-0.092,6.754c0,4.27,0.088,8.493,0.26,12.534
					c0.076,2.06,0.185,4.253,0.334,6.639H89.822v221.588h332.353V207.301H311.056c0.15-2.411,0.258-4.568,0.332-6.618
					c0.172-4.015,0.26-8.239,0.26-12.555c0-2.285-0.031-4.569-0.094-6.754h114.622c11.248,0,20.401,9.152,20.401,20.401V432.078z"/>
			</g>
		</g>
	</g>
	<g>
		<g>
			<path class="st5" d="M426.176,188.128H308.499c0,4.1-0.079,8.24-0.258,12.419h120.687v235.096H83.07V200.547h122.034
				c-0.178-4.179-0.257-8.32-0.257-12.419H85.803c-7.527,0-13.647,6.14-13.647,13.648v230.302c0,7.526,6.121,13.647,13.647,13.647
				h340.373c7.527,0,13.647-6.12,13.647-13.647V201.776C439.823,194.268,433.703,188.128,426.176,188.128z"/>
		</g>
	</g>
	<g>
		<g>
			<g>
				<path class="st0" d="M17.327,452.497v17.323c0,19.297,15.698,34.997,34.996,34.997h407.355c19.297,0,34.998-15.7,34.998-34.997
					v-17.323H17.327z M488.375,469.821c0,15.824-12.875,28.698-28.698,28.698H52.323c-15.823,0-28.696-12.874-28.696-28.698v-11.023
					h464.749V469.821z"/>
			</g>
		</g>
	</g>
	<g>
		<g>
			<path class="st5" d="M286.004,465.541c-1.05,2.12-2.436,4.021-4.1,5.685c-3.981,3.982-9.488,6.437-15.569,6.437h-34.208
				c-8.596,0-16.044-4.912-19.669-12.122H30.388v6.081c0,11.112,9.032,20.144,20.124,20.144h410.967
				c11.112,0,20.144-9.032,20.144-20.144v-6.081H286.004z"/>
		</g>
	</g>
	<g>
		<g>
			<rect y="498.518" class="st0" width="512" height="6.3"/>
		</g>
	</g>
	<g>
		<g>
			<g>
				<path class="st0" d="M206.955,452.497v3.15c0,13.88,11.293,25.172,25.173,25.172h34.213c13.879,0,25.171-11.292,25.171-25.172
					v-3.15H206.955z M266.34,474.519h-34.213c-9.333,0-17.107-6.81-18.61-15.722h71.431
					C283.445,467.71,275.673,474.519,266.34,474.519z"/>
			</g>
		</g>
	</g>
	<g>
		<g>
			<g>
				<path class="st0" d="M419.259,355.212c-1.731-0.125-3.431-0.186-5.199-0.186c-24.855,0-47.811,13.048-60.591,34.242
					c-3.675-1.404-7.514-2.114-11.449-2.114c-9.167,0-17.804,3.855-23.905,10.501c-6.12-8.865-16.127-14.204-27.099-14.204
					c-7.846,0-15.266,2.72-21.19,7.714c-4.348-3.255-9.595-5.02-15.057-5.02c-5.248,0-10.338,1.652-14.595,4.699
					c-5.875-4.786-13.156-7.393-20.782-7.393c-10.972,0-20.979,5.34-27.099,14.204c-6.101-6.645-14.739-10.501-23.905-10.501
					c-3.921,0-7.76,0.711-11.447,2.118c-12.778-21.196-35.728-34.245-60.573-34.245c-1.185,0-2.369,0.021-3.554,0.084l-2.984,0.158
					v73.62h332.351v-73.465L419.259,355.212z M415.882,422.589H96.13v-61.263c0.08,0,0.158,0,0.238,0
					c23.503,0,45.145,12.823,56.483,33.465l1.44,2.623l2.695-1.305c3.636-1.762,7.473-2.656,11.402-2.656
					c8.693,0,16.796,4.303,21.674,11.511l3.023,4.467l2.406-4.828c4.563-9.162,13.722-14.853,23.901-14.853
					c6.919,0,13.488,2.656,18.496,7.477l2.11,2.032l2.178-1.957c3.488-3.133,7.961-4.858,12.594-4.858
					c4.827,0,9.44,1.847,12.987,5.2l2.229,2.108l2.166-2.173c5.031-5.048,11.73-7.829,18.865-7.829
					c10.18,0,19.339,5.691,23.901,14.853l2.406,4.828l3.023-4.467c4.879-7.208,12.981-11.511,21.674-11.511
					c3.948,0,7.783,0.893,11.396,2.653l2.697,1.314l1.444-2.629c11.339-20.642,32.988-33.465,56.504-33.465
					c0.615,0,1.22,0.008,1.821,0.024V422.589z"/>
			</g>
		</g>
	</g>
	<g>
		<g>
			<g>
				<path class="st1" d="M168.388,400.207c-2.902,0-5.747,0.666-8.457,1.98l-8.47,4.104l-4.53-8.249
					c-9.091-16.555-25.585-27.493-44.047-29.593v47.386h86.381l-4.795-7.085C180.849,403.401,174.837,400.207,168.388,400.207z
					 M291.017,396.504c-5.327,0-10.327,2.074-14.08,5.841l-6.807,6.834l-7.012-6.626c-2.288-2.164-5.255-3.356-8.35-3.356
					c-3.799,0-6.49,1.702-8.08,3.129l-6.854,6.155l-6.635-6.39c-3.741-3.603-8.644-5.588-13.807-5.588
					c-7.602,0-14.444,4.257-17.856,11.109l-4.093,8.222h115.52l-4.093-8.222C305.459,400.761,298.617,396.504,291.017,396.504z
					 M363.477,398.042l-4.542,8.266l-8.478-4.131c-2.683-1.308-5.521-1.971-8.436-1.971c-6.451,0-12.463,3.194-16.084,8.543
					l-4.795,7.085h87.987V368.29C390.02,369.929,372.83,381.015,363.477,398.042z"/>
			</g>
		</g>
	</g>
	<g>
		<g>
			<rect x="348.464" y="240.157" class="st0" width="6.3" height="83.222"/>
		</g>
	</g>
	<g>
		<g>
			<rect x="364.24" y="301.794" class="st0" width="6.3" height="44.499"/>
		</g>
	</g>
	<g>
		<g>
			<rect x="137.322" y="276.211" class="st0" width="6.3" height="22.295"/>
		</g>
	</g>
	<g>
		<g>
			<rect x="160.766" y="240.486" class="st0" width="6.3" height="107.982"/>
		</g>
	</g>
	<g>
		<g>
			<g>
				<path class="st0" d="M259.248,10.787l-2.565-3.605l-2.565,3.605c-0.736,1.032-73.195,104.777-46.398,237.763l1.156,5.742
					l4.153-4.131c2.652-2.637,5.516-5.169,8.566-7.568l-0.265,56.181h34.37l-8.531-34.257l5.738-29.861h5.67l5.756,29.862
					l-8.531,34.256h34.865l-0.246-56.181c0.757,0.593,1.479,1.175,2.155,1.739l0.457,0.39c0.263,0.222,0.523,0.442,0.847,0.733
					c0.443,0.378,0.886,0.77,1.316,1.152l0.222,0.197c1.429,1.261,2.91,2.674,4.659,4.447l4.14,4.195l1.188-5.774
					C332.835,116.151,259.989,11.825,259.248,10.787z M300.339,242.75c-0.25-0.227-0.498-0.449-0.747-0.667l-0.215-0.191
					c-0.463-0.41-0.937-0.831-1.343-1.174c-0.301-0.272-0.611-0.536-0.925-0.801l-0.457-0.391c-1.645-1.371-3.47-2.792-5.408-4.209
					c-0.72-0.535-1.462-1.07-2.203-1.585l-4.973-3.45l0.271,62.192h-20.477l6.919-27.782l-7.003-36.335h-16.076l-6.981,36.336
					l6.919,27.781h-19.982l0.293-62.207l-4.979,3.468c-3.583,2.495-6.979,5.166-10.147,7.978
					C192.257,128.42,244.302,37.855,256.685,18.335C269.104,37.899,321.427,128.891,300.339,242.75z"/>
			</g>
		</g>
	</g>
	<g>
		<g>
			<g>
				<path class="st3" d="M234.439,285.72h4.556l-4.457-17.946L234.439,285.72z M256.663,31.471
					c-16.638,29.295-52.133,104.801-39.021,197.758c0.495-0.357,0.97-0.693,1.466-1.03l15.648-10.914l-0.198,43.676l7.567-39.358
					h27.235l8.101,42.051l-0.198-46.31l15.628,10.834c0.812,0.555,1.604,1.149,2.318,1.665c0.119,0.099,0.238,0.178,0.357,0.278
					C308.994,136.945,273.341,60.904,256.663,31.471z M256.009,151.998c-12.835,0-23.214-10.399-23.214-23.214
					c0-12.816,10.379-23.215,23.214-23.215c12.816,0,23.195,10.399,23.195,23.215C279.204,141.6,268.825,151.998,256.009,151.998z
					 M272.509,285.72h5.051l-0.099-19.927L272.509,285.72z"/>
			</g>
		</g>
	</g>
	<g>
		<g>
			<g>
				<path class="st0" d="M256,102.424c-14.536,0-26.36,11.825-26.36,26.36c0,14.535,11.825,26.36,26.36,26.36
					s26.36-11.825,26.36-26.36C282.36,114.25,270.536,102.424,256,102.424z M256,148.844c-11.062,0-20.06-8.999-20.06-20.06
					c0-11.061,8.999-20.06,20.06-20.06s20.06,8.999,20.06,20.06C276.06,139.846,267.062,148.844,256,148.844z"/>
			</g>
		</g>
	</g>
	<g>
		<g>
			<path class="st2" d="M288.751,77.736h-64.149c-1.803,5.006-3.564,10.267-5.24,15.74h74.628
				C292.315,88.003,290.554,82.742,288.751,77.736z"/>
		</g>
	</g>
	<g>
		<g>
			<path class="st2" d="M307.609,164.816H205.743c-0.382,5.155-0.658,10.394-0.785,15.74h103.436
				C308.267,175.21,307.991,169.971,307.609,164.816z"/>
		</g>
	</g>
	<g>
		<g>
			<g>
				<path class="st0" d="M297.002,92.554c-1.626-5.312-3.406-10.657-5.289-15.885l-0.75-2.083h-68.575l-0.751,2.083
					c-1.87,5.191-3.648,10.536-5.289,15.885l-1.247,4.073h83.147L297.002,92.554z M223.65,90.326
					c1.015-3.173,2.077-6.331,3.172-9.44h59.707c1.101,3.123,2.162,6.28,3.175,9.44H223.65z"/>
			</g>
		</g>
	</g>
	<g>
		<g>
			<g>
				<path class="st0" d="M311.544,180.481c-0.123-5.136-0.383-10.335-0.794-15.897l-0.215-2.918H202.816l-0.215,2.918
					c-0.41,5.534-0.669,10.735-0.792,15.897l-0.076,3.225H311.62L311.544,180.481z M208.203,177.406
					c0.107-3.087,0.265-6.212,0.476-9.44h95.993c0.211,3.238,0.371,6.363,0.478,9.44H208.203z"/>
			</g>
		</g>
	</g>
</g>
</svg>
