<?xml version="1.0" encoding="utf-8"?>
<!-- Generator: Adobe Illustrator 21.0.0, SVG Export Plug-In . SVG Version: 6.00 Build 0)  -->
<svg version="1.1" id="Layer_1" xmlns="http://www.w3.org/2000/svg" xmlns:xlink="http://www.w3.org/1999/xlink" x="0px" y="0px"
	 viewBox="0 0 512 512" style="enable-background:new 0 0 512 512;" xml:space="preserve">
<style type="text/css">
	.st0{fill:#4A555F;}
	.st1{fill:#F58E6F;}
	.st2{fill:#DFDFDF;}
	.st3{fill:#FFD452;}
	.st4{fill:#71CCE0;}
	.st5{fill:none;}
	.st6{fill:#FFFFFF;}
</style>
<g>
	<g>
		<path class="st0" d="M119.022,494.989c-21.531,0-41.784-8.379-57.024-23.591l-21.361-21.362
			C9.186,418.585,9.174,367.399,40.61,335.935l65.873-65.87c15.213-15.215,35.473-23.594,57.049-23.594
			c17.057,0,33.319,5.219,47.027,15.094c0.927,0.669,1.517,1.712,1.608,2.853c0.091,1.141-0.32,2.264-1.131,3.073l-36.629,36.63
			c-1.024,1.026-2.53,1.397-3.917,0.968c-2.238-0.695-4.578-1.048-6.958-1.048c-6.166,0-11.968,2.396-16.343,6.746l-65.86,65.888
			c-8.993,8.993-8.981,23.638,0.025,32.645l21.358,21.358c4.367,4.344,10.162,6.74,16.31,6.74c3.066,0,6.041-0.584,8.843-1.736
			c2.764-1.158,5.289-2.85,7.482-5.019L201.2,364.81c6.128-6.126,8.32-15.056,5.724-23.307c-0.437-1.387-0.066-2.903,0.963-3.93
			l36.629-36.629c0.805-0.808,1.903-1.225,3.069-1.131c1.138,0.09,2.18,0.676,2.85,1.601c23.263,32.126,19.681,75.911-8.518,104.112
			l0,0l-65.87,65.869C160.834,486.611,140.581,494.989,119.022,494.989z M163.532,254.276c-19.491,0-37.793,7.567-51.532,21.307
			l-65.87,65.869c-28.395,28.421-28.385,74.656,0.025,103.067l21.358,21.359c13.764,13.739,32.059,21.307,51.509,21.307
			c19.475,0,37.767-7.567,51.506-21.307l65.87-65.869c24.376-24.377,28.398-61.63,10.297-90.208l-31.69,31.691
			c2.401,10.359-0.668,21.22-8.287,28.836l-65.868,65.869c-2.919,2.89-6.278,5.137-9.994,6.693
			c-3.77,1.552-7.743,2.333-11.834,2.333c-8.226,0-15.977-3.204-21.82-9.019l-21.366-21.366
			c-12.05-12.05-12.062-31.646-0.025-43.681l65.868-65.896c5.853-5.823,13.612-9.025,21.853-9.025c2.353,0,4.682,0.26,6.948,0.775
			l31.69-31.69C190.644,258.081,177.38,254.276,163.532,254.276z"/>
	</g>
	<g>
		<path class="st1" d="M119.022,478.08c-17.021,0-33.029-6.623-45.079-18.648l-21.35-21.352
			c-24.862-24.861-24.869-65.321-0.02-90.193l65.865-65.865c12.022-12.022,28.035-18.641,45.094-18.641
			c8.112,0,15.99,1.489,23.332,4.37l-19.557,19.557c-1.25-0.117-2.51-0.175-3.775-0.175c-10.665,0-20.705,4.144-28.268,11.667
			l-65.893,65.922c-15.583,15.583-15.573,40.957,0.028,56.557l21.358,21.358c7.586,7.548,17.616,11.693,28.265,11.693
			c5.284,0,10.424-1.012,15.276-3.008c4.88-2.045,9.207-4.94,12.941-8.636l65.916-65.917c8.59-8.588,12.708-20.365,11.572-32.121
			l19.587-19.587c9.243,23.112,4.121,50.035-14.354,68.511l-65.87,65.869C152.069,471.461,136.064,478.08,119.022,478.08z"/>
	</g>
	<g>
		<path class="st0" d="M343.684,270.325c-17.044,0-33.303-5.23-47.025-15.122c-0.93-0.669-1.517-1.712-1.608-2.852
			c-0.091-1.141,0.32-2.264,1.131-3.073l36.629-36.629c1.021-1.024,2.53-1.397,3.915-0.968c8.412,2.608,17.288,0.314,23.268-5.665
			l65.87-65.87c4.362-4.362,6.765-10.154,6.765-16.309c0-6.154-2.403-11.947-6.765-16.31l-21.358-21.358
			c-4.362-4.382-10.17-6.792-16.361-6.792c-6.138,0-11.92,2.403-16.285,6.765l-65.87,65.87c-6.107,6.086-8.277,14.994-5.67,23.252
			c0.437,1.39,0.066,2.906-0.963,3.935l-36.629,36.602c-0.81,0.81-1.913,1.226-3.082,1.129c-1.143-0.095-2.185-0.687-2.853-1.621
			c-22.699-31.76-19.056-76.477,8.48-104.013l65.87-65.897c15.2-15.197,35.443-23.567,57.001-23.567
			c21.574,0,41.845,8.387,57.077,23.619l21.358,21.359c15.215,15.187,23.594,35.44,23.594,57.025
			c0,21.557-8.379,41.81-23.594,57.025l-65.87,65.869C385.498,261.947,365.248,270.325,343.684,270.325z M305.046,251.451
			c11.536,7.257,24.8,11.07,38.638,11.07c19.478,0,37.77-7.567,51.509-21.307l65.87-65.869
			c13.739-13.742,21.307-32.034,21.307-51.507c0-19.498-7.566-37.79-21.305-51.505l-21.361-21.362
			c-13.759-13.757-32.069-21.333-51.559-21.333c-19.473,0-37.757,7.558-51.483,21.281l-65.87,65.897
			c-23.774,23.777-27.826,61.739-10.218,90.105l31.665-31.641c-2.416-10.369,0.635-21.213,8.239-28.79l65.865-65.865
			c5.838-5.837,13.582-9.052,21.803-9.052c8.285,0,16.056,3.226,21.886,9.085l21.35,21.352c5.838,5.837,9.052,13.589,9.052,21.828
			c0,8.24-3.214,15.991-9.052,21.828l-65.87,65.869c-5.82,5.82-13.571,9.025-21.828,9.025c-2.319,0-4.649-0.268-6.948-0.798
			L305.046,251.451z"/>
	</g>
	<g>
		<path class="st1" d="M343.684,253.417c-8.107,0-15.99-1.495-23.34-4.388l19.547-19.546c1.263,0.122,2.528,0.183,3.793,0.183
			c10.688,0,20.725-4.152,28.266-11.693l65.87-65.87c7.558-7.557,11.719-17.595,11.719-28.266c0-10.672-4.161-20.71-11.719-28.267
			l-21.358-21.358c-7.525-7.566-17.59-11.745-28.317-11.745c-10.655,0-20.685,4.161-28.24,11.718l-65.87,65.87
			c-8.574,8.542-12.68,20.306-11.526,32.074l-19.448,19.434c-8.889-23.091-3.803-50.336,14.171-68.312l65.87-65.897
			c12.004-12.001,28.001-18.612,45.043-18.612c17.059,0,33.082,6.63,45.122,18.668l21.358,21.358
			c12.022,12.002,18.64,28.005,18.64,45.068c0,17.042-6.621,33.047-18.642,45.07l-65.867,65.869
			C376.733,246.796,360.728,253.417,343.684,253.417z"/>
	</g>
	<g>
		<path class="st0" d="M188.879,365.997c-0.998,0-1.997-0.381-2.759-1.143l-38.976-38.975c-0.732-0.732-1.143-1.724-1.143-2.759
			s0.412-2.027,1.143-2.759l168.44-168.439c1.524-1.524,3.994-1.524,5.518,0l38.976,38.975c0.732,0.732,1.143,1.724,1.143,2.759
			c0,1.035-0.412,2.027-1.143,2.759l-168.44,168.439C190.876,365.616,189.877,365.997,188.879,365.997z M155.42,323.119
			l33.458,33.457l162.922-162.921l-33.458-33.457L155.42,323.119z"/>
	</g>
	<g>
		
			<rect x="147.513" y="243.835" transform="matrix(0.7071 -0.7071 0.7071 0.7071 -108.4267 255.0094)" class="st1" width="212.195" height="29.105"/>
	</g>
	<g>
		<path class="st0" d="M15.464,343.864c-0.904-2.476-1.771-4.969-2.604-7.48l7.408-2.457c0.808,2.435,1.649,4.855,2.528,7.257
			L15.464,343.864z M10.492,328.816c-0.747-2.528-1.458-5.071-2.131-7.628l7.545-1.987c0.653,2.481,1.344,4.948,2.071,7.399
			L10.492,328.816z M6.468,313.493c-0.592-2.57-1.143-5.153-1.654-7.752l7.657-1.507c0.495,2.518,1.031,5.02,1.603,7.508
			L6.468,313.493z M3.402,297.946c-0.427-2.599-0.818-5.212-1.166-7.837l7.738-1.026c0.338,2.544,0.714,5.076,1.131,7.596
			L3.402,297.946z M1.313,282.24c-0.267-2.618-0.493-5.249-0.681-7.89l7.784-0.554c0.183,2.562,0.404,5.114,0.661,7.656
			L1.313,282.24z M0.196,266.441c-0.104-2.629-0.17-5.269-0.196-7.919l7.804-0.076c0.025,2.571,0.086,5.132,0.191,7.682
			L0.196,266.441z M7.853,250.766l-7.804-0.168c0.058-2.648,0.152-5.287,0.29-7.916l7.794,0.406
			C8,245.637,7.906,248.196,7.853,250.766z M8.643,235.42l-7.779-0.638c0.216-2.641,0.475-5.27,0.772-7.887l7.754,0.879
			C9.103,230.312,8.854,232.86,8.643,235.42z M10.375,220.157l-7.723-1.118c0.379-2.622,0.798-5.231,1.258-7.825l7.682,1.359
			C11.148,215.088,10.744,217.616,10.375,220.157z M13.04,205.032l-7.639-1.598c0.544-2.59,1.123-5.166,1.74-7.727l7.586,1.827
			C14.13,200.018,13.566,202.518,13.04,205.032z M16.645,190.101l-7.525-2.071c0.701-2.551,1.443-5.086,2.218-7.604l7.459,2.299
			C18.043,185.168,17.326,187.627,16.645,190.101z M21.175,175.422l-7.383-2.533c0.861-2.511,1.761-5.004,2.695-7.477l7.301,2.763
			C22.88,170.574,22.011,172.99,21.175,175.422z M26.624,161.013l-7.21-2.99c1.016-2.45,2.071-4.88,3.158-7.29l7.113,3.214
			C28.629,156.282,27.61,158.638,26.624,161.013z M32.958,146.98l-7.007-3.435c1.166-2.379,2.368-4.738,3.602-7.074l6.9,3.648
			C35.255,142.384,34.088,144.672,32.958,146.98z M40.158,133.373l-6.783-3.862c1.311-2.302,2.657-4.581,4.037-6.836l6.656,4.075
			C42.729,128.935,41.428,131.143,40.158,133.373z M48.178,120.248l-6.529-4.276c1.451-2.213,2.932-4.403,4.446-6.567l6.397,4.474
			C51.023,115.977,49.583,118.101,48.178,120.248z M56.996,107.646l-6.255-4.667c1.583-2.12,3.196-4.215,4.845-6.281l6.102,4.863
			C60.096,103.563,58.528,105.592,56.996,107.646z M66.571,95.62l-5.95-5.048c1.71-2.017,3.45-4.006,5.223-5.968l5.787,5.233
			C69.915,91.738,68.23,93.666,66.571,95.62z M76.865,84.208l-5.63-5.404c1.829-1.907,3.686-3.785,5.576-5.634l5.457,5.579
			C80.44,80.54,78.639,82.36,76.865,84.208z M87.84,73.457l-5.289-5.742c1.943-1.789,3.912-3.548,5.909-5.277l5.106,5.902
			C91.631,70.016,89.723,71.722,87.84,73.457z M99.45,63.401l-4.929-6.051c2.048-1.665,4.121-3.3,6.219-4.902l4.735,6.201
			C103.444,60.203,101.432,61.787,99.45,63.401z M111.647,54.087l-4.542-6.346c2.144-1.534,4.311-3.037,6.506-4.507l4.344,6.481
			C115.832,51.141,113.726,52.598,111.647,54.087z M124.393,45.542l-4.141-6.613c2.233-1.4,4.492-2.767,6.77-4.097l3.933,6.74
			C128.748,42.861,126.56,44.185,124.393,45.542z M137.632,37.805l-3.724-6.857c2.314-1.258,4.649-2.481,7.004-3.667l3.511,6.969
			C142.139,35.4,139.875,36.585,137.632,37.805z M151.32,30.903l-3.292-7.075c2.386-1.111,4.791-2.186,7.215-3.225l3.074,7.174
			C155.964,28.783,153.634,29.827,151.32,30.903z M165.397,24.87l-2.85-7.266c2.449-0.96,4.916-1.884,7.395-2.769l2.627,7.35
			C170.16,23.044,167.77,23.94,165.397,24.87z M338.382,21.812c-2.413-0.847-4.842-1.659-7.289-2.435l2.358-7.439
			c2.523,0.799,5.028,1.636,7.517,2.511L338.382,21.812z M179.84,19.714l-2.393-7.428c2.51-0.809,5.038-1.58,7.578-2.312l2.159,7.5
			C184.72,18.182,182.273,18.93,179.84,19.714z M323.739,17.171c-2.459-0.695-4.936-1.354-7.428-1.975l1.89-7.573
			c2.568,0.641,5.122,1.321,7.662,2.039L323.739,17.171z M194.597,15.461l-1.926-7.563c2.553-0.65,5.124-1.261,7.708-1.836
			l1.692,7.619C199.564,14.238,197.074,14.831,194.597,15.461z M308.826,13.451c-2.497-0.541-5.01-1.045-7.535-1.51l1.413-7.675
			c2.607,0.48,5.195,1,7.774,1.556L308.826,13.451z M209.596,12.137l-1.453-7.667c2.591-0.49,5.195-0.941,7.81-1.353l1.214,7.71
			C214.629,11.226,212.106,11.662,209.596,12.137z M293.707,10.667c-2.523-0.385-5.061-0.732-7.614-1.04l0.94-7.749
			c2.629,0.319,5.249,0.676,7.853,1.073L293.707,10.667z M224.766,9.752l-0.97-7.743c2.612-0.328,5.239-0.616,7.876-0.865
			l0.732,7.769C229.847,9.154,227.301,9.435,224.766,9.752z M278.454,8.821c-2.543-0.23-5.099-0.419-7.665-0.57l0.457-7.792
			c2.647,0.156,5.284,0.353,7.909,0.588L278.454,8.821z M240.06,8.312l-0.493-7.789c2.629-0.166,5.269-0.292,7.916-0.377
			l0.249,7.799C245.166,8.027,242.608,8.151,240.06,8.312z M263.105,7.916l-2.083-0.052c-1.712-0.033-3.422-0.051-5.127-0.051
			h-0.485V0.008h0.485c1.755,0,3.516,0.018,5.279,0.053l2.154,0.052L263.105,7.916z"/>
	</g>
	<g>
		<path class="st0" d="M252.457,511.992l-1.636-0.028c-2.106-0.042-4.199-0.109-6.285-0.203l0.351-7.797
			c2.025,0.091,4.052,0.156,6.087,0.198l1.595,0.025L252.457,511.992z M260.381,511.983l-0.127-7.804
			c2.571-0.042,5.129-0.123,7.682-0.244l0.366,7.797C265.673,511.855,263.033,511.938,260.381,511.983z M236.625,511.291
			c-2.645-0.198-5.274-0.437-7.896-0.714l0.823-7.761c2.54,0.269,5.094,0.5,7.657,0.694L236.625,511.291z M276.211,511.238
			l-0.61-7.782c2.558-0.199,5.109-0.438,7.647-0.716l0.849,7.759C281.477,510.785,278.851,511.031,276.211,511.238z M220.861,509.62
			c-2.627-0.361-5.241-0.761-7.837-1.2l1.301-7.695c2.52,0.427,5.053,0.814,7.599,1.162L220.861,509.62z M291.96,509.516
			l-1.087-7.728c2.543-0.358,5.073-0.755,7.588-1.188l1.326,7.69C297.19,508.739,294.584,509.148,291.96,509.516z M205.232,506.978
			c-2.596-0.522-5.18-1.084-7.746-1.682l1.773-7.601c2.49,0.581,4.992,1.124,7.512,1.631L205.232,506.978z M307.568,506.824
			l-1.565-7.644c2.513-0.516,5.015-1.068,7.5-1.659l1.804,7.594C312.741,505.723,310.162,506.293,307.568,506.824z M189.796,503.371
			c-2.558-0.682-5.101-1.404-7.627-2.162l2.246-7.474c2.449,0.735,4.911,1.434,7.393,2.096L189.796,503.371z M322.989,503.164
			l-2.038-7.535c2.477-0.668,4.936-1.376,7.383-2.12l2.271,7.467C328.083,501.742,325.542,502.472,322.989,503.164z
			 M174.614,498.809c-2.51-0.841-5-1.719-7.477-2.633l2.703-7.322c2.401,0.887,4.819,1.739,7.253,2.554L174.614,498.809z
			 M338.143,498.55l-2.5-7.393c2.429-0.823,4.84-1.682,7.235-2.577l2.734,7.312C343.14,496.815,340.653,497.701,338.143,498.55z
			 M352.97,493.008l-2.957-7.223c2.363-0.968,4.713-1.973,7.04-3.012l3.181,7.126C357.83,490.972,355.409,492.009,352.97,493.008z
			 M367.4,486.568l-3.399-7.025c2.304-1.114,4.583-2.264,6.844-3.446l3.618,6.915C372.13,484.233,369.775,485.418,367.4,486.568z
			 M381.411,479.237l-3.826-6.801c2.228-1.254,4.436-2.542,6.621-3.864l4.039,6.679C385.989,476.614,383.71,477.943,381.411,479.237
			z M394.949,471.057l-4.243-6.552c2.149-1.391,4.276-2.814,6.377-4.268l4.441,6.417
			C399.357,468.154,397.164,469.623,394.949,471.057z M407.961,462.049l-4.634-6.28c2.06-1.52,4.093-3.071,6.102-4.653l4.827,6.13
			C412.186,458.879,410.088,460.481,407.961,462.049z M420.397,452.254l-5.01-5.983c1.964-1.645,3.9-3.319,5.81-5.023l5.193,5.825
			C424.419,448.831,422.422,450.559,420.397,452.254z M432.221,441.71l-5.376-5.66c1.857-1.762,3.689-3.554,5.493-5.373l5.543,5.493
			C436.021,438.047,434.134,439.892,432.221,441.71z M443.371,430.453l-5.711-5.32c1.748-1.874,3.465-3.775,5.155-5.702l5.869,5.142
			C446.943,426.561,445.17,428.521,443.371,430.453z M453.812,418.53l-6.026-4.959c1.628-1.978,3.226-3.981,4.791-6.01l6.178,4.769
			C457.14,414.423,455.492,416.489,453.812,418.53z M463.507,405.98l-6.321-4.581c1.504-2.073,2.972-4.172,4.41-6.294l6.463,4.377
			C466.576,401.674,465.057,403.841,463.507,405.98z M472.404,392.851l-6.59-4.179c1.372-2.165,2.711-4.352,4.017-6.561l6.717,3.971
			C475.201,388.362,473.821,390.618,472.404,392.851z M480.483,379.187l-6.839-3.762c1.235-2.245,2.436-4.509,3.6-6.797l6.956,3.541
			C482.995,374.53,481.758,376.871,480.483,379.187z M487.687,365.043l-7.058-3.333c1.095-2.318,2.152-4.655,3.176-7.012
			l7.159,3.104C489.91,360.237,488.818,362.651,487.687,365.043z M494.011,350.467l-7.251-2.886c0.948-2.38,1.857-4.781,2.729-7.198
			l7.342,2.647C495.929,345.528,494.989,348.007,494.011,350.467z M499.414,335.513l-7.418-2.421c0.793-2.43,1.547-4.876,2.269-7.34
			l7.489,2.192C501.012,330.484,500.232,333.007,499.414,335.513z M503.858,320.301l-7.555-1.949c0.638-2.476,1.24-4.965,1.806-7.47
			l7.611,1.72C505.138,315.183,504.516,317.749,503.858,320.301z M507.338,304.846l-7.662-1.484
			c0.485-2.506,0.932-5.026,1.339-7.561l7.708,1.24C508.301,299.657,507.839,302.258,507.338,304.846z M509.863,289.202
			l-7.738-1.001c0.328-2.533,0.617-5.076,0.866-7.632l7.769,0.76C510.501,283.966,510.201,286.591,509.863,289.202z
			 M511.411,273.439l-7.784-0.528c0.17-2.547,0.305-5.104,0.399-7.672l7.799,0.29C511.726,268.175,511.591,270.813,511.411,273.439z
			 M511.995,257.6l-7.804-0.036l0.005-1.651c0-2.02-0.025-4.033-0.074-6.041l7.804-0.185c0.048,2.069,0.074,4.146,0.074,6.227
			L511.995,257.6z M503.822,242.198c-0.14-2.566-0.32-5.119-0.536-7.663l7.774-0.666c0.226,2.623,0.412,5.258,0.556,7.902
			L503.822,242.198z M502.511,226.889c-0.295-2.548-0.633-5.085-1.006-7.61l7.718-1.146c0.389,2.607,0.737,5.227,1.042,7.859
			L502.511,226.889z M500.26,211.702c-0.46-2.528-0.953-5.042-1.484-7.541l7.637-1.621c0.546,2.576,1.054,5.166,1.524,7.77
			L500.26,211.702z M497.067,196.677c-0.615-2.491-1.265-4.969-1.951-7.432l7.52-2.093c0.706,2.539,1.377,5.094,2.007,7.661
			L497.067,196.677z M492.939,181.88c-0.765-2.448-1.568-4.88-2.406-7.295l7.373-2.558c0.864,2.491,1.692,5,2.482,7.524
			L492.939,181.88z"/>
	</g>
</g>
</svg>
