<svg xmlns="http://www.w3.org/2000/svg" viewBox="0 0 1390.32 411.31">
  <defs/>
  <path fill="#17191d" d="M428.1 346.03v-130.3c0-9.9 5.16-14.83 15.53-14.83h12.65v145.13c0 11.07-2.5 20.6-7.49 28.6a44.84 44.84 0 01-17.86 15.82c-4.88 2.28-9.72 2.8-14.46 1.49-5.54-1.44-8.28-5.3-8.28-11.58v-12.93c5.07 0 9.49-1.59 13.2-4.75 4.47-4 6.7-9.58 6.7-16.65zm837.83-18.24V164.94c0-9.9 5.17-14.89 15.54-14.89h12.65V259.8h10.24c2.79 0 5.49-.19 8.05-.56 2.5-.37 4.6-1.9 6.23-4.65l26.6-43.59c4.15-6.74 9.83-10.1 16.9-10.1h22.18l-33.77 55.31a47.37 47.37 0 01-5.59 7.77c9.27 4.28 16.33 12.1 21.27 23.45l24.09 55.21h-17.96c-8.47 0-13.95-3.02-16.5-8.98l-15.26-35.02c-3.27-7.21-8.61-10.8-15.96-10.8h-30.52v54.8h-12.65c-10.37 0-15.54-4.98-15.54-14.84zm-141.84-37.07v-37.91c0-15.91 6.7-29.45 20.05-40.6 12.42-10.43 27.35-15.69 44.8-15.69 17.3 0 32.18 5.26 44.7 15.68 7.62 6.47 13.2 13.96 16.65 22.51l-12.42 6.24c-7.26 3.62-13.35 2.56-18.24-3.26a40.77 40.77 0 00-3.81-3.81c-7.5-6.1-16.42-9.12-26.89-9.12-10.6 0-19.54 3.02-26.84 9.12-6.51 5.53-9.81 11.86-9.81 18.93v37.91c0 7.35 3.3 13.67 9.81 18.93 7.3 6.1 16.24 9.12 26.84 9.12 10.47 0 19.4-3.02 26.89-9.12.88-.74 2.19-2 3.81-3.81 4.98-5.82 11.07-6.93 18.24-3.26l12.42 6.23c-3.44 8.66-9.03 16.15-16.66 22.52-12.42 10.32-27.3 15.54-44.7 15.54-17.49 0-32.47-5.22-44.8-15.54-13.34-11.12-20.04-24.66-20.04-40.61zm-85.88-94.2c17.81 0 33.44 5.5 46.88 16.52 13.91 11.53 20.84 25.63 20.84 42.23v87.36h-8.32c-7.07 0-12.33-3.81-15.82-11.44a53.25 53.25 0 01-20.28 12 76.65 76.65 0 01-23.3 3.68c-18.28 0-33.96-5.45-47.03-16.38-13.9-11.44-20.84-25.54-20.84-42.24v-32.98c0-16.6 6.93-30.7 20.84-42.23 13.35-11.03 29.03-16.52 47.03-16.52zm28.88 38.05c-7.9-6.55-17.53-9.81-28.88-9.81-11.35 0-21.03 3.26-29.03 9.81-7.07 5.91-10.65 12.8-10.65 20.7v32.98c0 7.91 3.58 14.8 10.65 20.7 8 6.56 17.68 9.82 29.03 9.82 11.35 0 20.98-3.26 28.88-9.82 7.08-5.72 10.66-12.6 10.66-20.7v-32.98c0-8-3.58-14.88-10.66-20.7zM929.72 200.9h33.21v12.56c0 10.32-4.93 15.53-14.84 15.53h-18.37v68.24c0 7.3 2.23 12.89 6.8 16.8 3.53 3.16 7.94 4.74 13.2 4.74v12.84c0 6.23-2.8 10.14-8.42 11.72-4.74 1.44-9.54.88-14.47-1.68a40.34 40.34 0 01-17.86-15.76c-4.98-7.72-7.49-17.3-7.49-28.66V164.94c0-9.9 5.17-14.89 15.54-14.89h12.7zM770.1 268.49a37.69 37.69 0 01-9.54-23.87 39.87 39.87 0 018.89-27.35c6.14-7.72 14.14-13.26 23.95-16.51 8.56-2.8 18.66-4.24 30.28-4.24 13.45 0 25.36 2.7 35.68 8.05a59.33 59.33 0 0114.33 10.8 49.04 49.04 0 0110.1 15.76l-13.5 6.84c-7.02 3.35-12.6 2.51-16.79-2.6a29.62 29.62 0 00-6-5.03 32.98 32.98 0 00-7.07-3.25 39.7 39.7 0 00-6.56-1.68 75.51 75.51 0 00-13.49-.93c-6.32.28-11.4.8-15.12 1.63-6.09 1.44-10.46 3.81-13.2 7.07-2.47 2.74-3.59 6.1-3.4 10.1.1 3.02 1.16 5.57 3.25 7.76 1.91 2 4.33 3.44 7.21 4.37a35.73 35.73 0 008.94 2.1 155.5 155.5 0 0014.89.74h6.46c6.23 0 11.72.42 16.32 1.26a53.57 53.57 0 0118.7 6.5 48.04 48.04 0 019.96 8.2c2.79 3.2 5.11 6.74 6.93 10.65 1.72 4 2.8 8.23 3.25 12.79.47 7.26-.7 14.14-3.53 20.56a45.42 45.42 0 01-12.93 16.24 49 49 0 01-14.05 7.48 73.57 73.57 0 01-15.95 3.96c-6.38.65-11.82.98-16.33.98-10 0-19.26-1.54-27.82-4.52-9.72-3.35-17.67-8.23-23.86-14.56a43.8 43.8 0 01-10.33-15.44l13.5-6.65c6.78-3.35 12.41-2.56 16.88 2.46a19.4 19.4 0 006.56 5.3 32.86 32.86 0 008 3.26c4.65 1.3 10.28 2.05 16.93 2.33 5.54.18 11.16-.28 16.88-1.35 6.56-1.12 11.45-3.49 14.7-7.26 2-2.14 3.21-4.83 3.58-8 .42-5.49-2-9.72-7.4-12.84-4.32-2.28-9.44-3.58-15.25-3.95-3.81-.28-7.53-.37-11.2-.28-3.73.1-6.99.05-9.92-.14-8.6-.23-16.05-1.4-22.19-3.4-8.74-2.79-15.62-7.25-20.74-13.34zm-47.4-56.94c2.56-7.12 7.44-10.65 14.74-10.65h18.94l-55.22 155.64a199.1 199.1 0 01-4.1 10.6 67.95 67.95 0 01-4.46 9.26 41.11 41.11 0 01-15.95 14.05c-5.17 2.28-10 2.8-14.47 1.49-5.63-1.44-8.42-5.35-8.42-11.72v-12.8c3.26 0 6.47-.74 9.54-2.18 3.62-1.72 5.95-4.05 6.93-6.93l5.49-14.19c-8.94-2.19-14.61-6.7-17.08-13.63l-41.4-116.8c-1.3-3.54-1.3-6.47 0-8.84 1.26-2.65 3.91-3.95 7.91-3.95h17.59l41.67 117.31h.42zm-177.99-15.03c17.82 0 33.45 5.5 46.9 16.52 13.9 11.53 20.83 25.63 20.83 42.23v32.98c0 16.7-6.93 30.8-20.84 42.24-13.07 10.93-28.7 16.38-46.89 16.38-18.28 0-33.95-5.45-47.02-16.38-13.91-11.44-20.84-25.54-20.84-42.24v-32.98c0-16.6 6.93-30.7 20.84-42.23 13.35-11.03 29.02-16.52 47.02-16.52zm28.9 38.05c-7.92-6.55-17.55-9.81-28.9-9.81-11.35 0-21.02 3.26-29.02 9.81-7.07 5.91-10.65 12.8-10.65 20.7v32.98c0 7.91 3.58 14.8 10.65 20.7 8 6.56 17.67 9.82 29.02 9.82 11.35 0 20.98-3.26 28.9-9.82 7.06-5.72 10.64-12.6 10.64-20.7v-32.98c0-8-3.58-14.88-10.65-20.7zm-145.53-69.63c0-9.9 5.17-14.89 15.54-14.89h12.65v13.36c0 9.9-5.16 14.88-15.53 14.88h-12.66v-13.35"/>
  <path fill="#f04220" d="M0 301.31l153.53 80.75 126.1-66.32v-24.5l-119.72 62.97-6.37 3.35-6.38-3.35L7.34 280.67 0 276.8v-63.88c0-5.08 2.63-9.44 7.13-11.8l.21-.11 6.38-3.36 6.38 3.36 133.43 70.18 110.42-58.07-70.07-36.86v-30.93l105.85 55.68.2.1a13.06 13.06 0 017.14 11.82v8.44l-7.34 3.86-139.82 73.54-6.37 3.35-6.38-3.35L27.44 235.8v24.5l126.1 66.32 133.43-70.18 20.1-10.57v78.3c0 5.08-2.63 9.44-7.13 11.8l-.21.12-139.82 73.54-.16.09a12.99 12.99 0 01-12.42 0l-.17-.1L7.13 336A13.06 13.06 0 010 324.18zm163.87-112.43c5.5 1.8 9.03 4.53 9.03 7.6 0 5.4-10.88 9.76-24.3 9.76-13.43 0-24.3-4.37-24.3-9.76 0-3.07 3.52-5.8 9.03-7.6v6.63c2.04 2.33 8.1 4.02 15.27 4.02 7.16 0 13.22-1.69 15.27-4.02zM144.63 27.75a20 20 0 1131.94 24.11 20 20 0 01-31.94-24.1zm19.24 151.15v-60.43a60.21 60.21 0 10-30.54.01v60.42c-15.24 3.29-26.02 11.34-26.02 20.76v9.59c0 12.33 18.49 22.33 41.29 22.33s41.28-10 41.28-22.33v-9.59c0-9.42-10.77-17.47-26.01-20.76"/>
</svg>
